<svg width="1243" height="594" viewBox="0 0 1243 594" fill="none" xmlns="http://www.w3.org/2000/svg">
<path d="M286.059 272.887C286.138 273.06 286.176 273.249 286.169 273.439C286.169 274.303 285.618 274.891 284.535 275.277C283.271 275.459 282.036 275.805 280.861 276.306C280.424 276.53 280.037 276.838 279.721 277.214C279.406 277.589 279.169 278.025 279.024 278.493C278.557 279.997 278.352 281.57 278.418 283.144V348.653C278.401 348.79 278.353 348.921 278.276 349.036C278.2 349.151 278.097 349.246 277.977 349.314C277.629 349.56 277.207 349.677 276.783 349.645H276.563C276.214 349.631 275.873 349.534 275.57 349.361C275.266 349.189 275.008 348.946 274.818 348.653L222.542 281.508C222.463 281.378 222.353 281.269 222.221 281.192C222.09 281.115 221.941 281.072 221.789 281.067C221.569 281.067 221.458 281.25 221.458 281.618V339.04C221.392 340.613 221.597 342.186 222.065 343.69C222.349 344.614 222.973 345.395 223.81 345.877C224.944 346.391 226.133 346.773 227.355 347.017C228.512 347.311 229.1 347.881 229.1 348.855C229.106 349.045 229.068 349.234 228.989 349.406C228.933 349.527 228.859 349.639 228.769 349.737L223.259 349.406H216.609L211.099 349.737C211.009 349.639 210.934 349.527 210.878 349.406C210.8 349.234 210.762 349.045 210.768 348.855C210.768 347.973 211.338 347.403 212.513 347.017C213.734 346.77 214.923 346.388 216.058 345.877C216.886 345.384 217.506 344.607 217.803 343.69C218.271 342.186 218.476 340.613 218.409 339.04L218.501 278.659C217.933 277.724 217.153 276.937 216.224 276.361C215.053 275.813 213.819 275.412 212.55 275.167C211.448 274.872 210.915 274.303 210.915 273.42C210.909 273.23 210.947 273.042 211.025 272.869C211.068 272.745 211.137 272.633 211.227 272.538C211.668 272.538 213.413 272.648 216.481 272.869H227.061C227.638 272.825 228.218 272.922 228.749 273.153C229.28 273.384 229.747 273.74 230.11 274.192L274.285 331.853C274.653 332.294 274.946 332.514 275.167 332.514C275.387 332.514 275.571 332.257 275.718 331.742V283.052C275.784 281.478 275.579 279.905 275.112 278.401C274.798 277.466 274.142 276.684 273.275 276.214C272.099 275.717 270.865 275.371 269.601 275.185C268.499 274.891 267.967 274.303 267.967 273.347C267.96 273.157 267.998 272.968 268.077 272.795C268.133 272.674 268.207 272.563 268.297 272.464C269.131 272.456 269.965 272.493 270.795 272.575L273.642 272.685H280.402L283.23 272.575C284.067 272.493 284.907 272.456 285.747 272.464C285.879 272.582 285.985 272.726 286.059 272.887V272.887Z" fill="#311B88"/>
<path d="M340.172 340.163C340.374 340.174 340.572 340.227 340.752 340.319C340.932 340.41 341.091 340.539 341.219 340.696C341.591 341.198 341.767 341.819 341.715 342.442C341.691 343.479 341.461 344.5 341.038 345.447C340.616 346.393 340.009 347.247 339.254 347.956C338.366 348.816 337.311 349.483 336.155 349.917C334.998 350.35 333.764 350.54 332.531 350.474C331.362 350.513 330.199 350.283 329.132 349.802C328.066 349.32 327.123 348.601 326.378 347.699C324.625 345.27 323.721 342.331 323.806 339.336C322.381 342.686 320.061 345.58 317.102 347.699C314.341 349.653 311.042 350.7 307.661 350.695C301.838 350.695 297.429 349.077 294.399 345.842C291.432 342.703 289.81 338.527 289.88 334.207C289.832 331.942 290.327 329.699 291.324 327.665C292.322 325.631 293.792 323.865 295.611 322.517C299.921 319.385 305.167 317.81 310.489 318.051C312.765 318.07 315.035 318.304 317.267 318.749C319.514 319.183 321.707 319.861 323.806 320.771V317.279C323.806 312.12 322.41 308.333 319.618 305.919C316.744 303.468 313.07 302.16 309.295 302.243C306.451 302.197 303.637 302.826 301.083 304.078C298.528 305.331 296.307 307.171 294.601 309.449C294.601 309.449 294.27 309.449 293.848 309.063C293.651 308.943 293.488 308.776 293.372 308.577C293.257 308.378 293.193 308.153 293.186 307.923C293.236 307.302 293.51 306.72 293.958 306.287C295.747 303.652 298.27 301.6 301.213 300.387C304.775 298.866 308.62 298.121 312.491 298.199C317.953 297.999 323.321 299.658 327.718 302.905C331.759 306.03 333.743 311.164 333.67 318.308L333.56 336.542C333.446 338.405 333.67 340.273 334.221 342.056C334.404 342.532 334.735 342.937 335.164 343.212C335.594 343.486 336.1 343.616 336.609 343.582C337.986 343.582 338.941 342.516 339.456 340.42C339.539 340.314 339.65 340.234 339.777 340.188C339.904 340.143 340.041 340.134 340.172 340.163V340.163ZM319.967 340.696C322.278 337.941 323.575 334.477 323.641 330.881C323.73 330.155 323.767 329.424 323.751 328.693C322.536 326.296 320.612 324.332 318.241 323.069C316.064 321.882 313.629 321.25 311.15 321.231C307.906 321.066 304.705 322.034 302.095 323.969C300.986 324.873 300.102 326.023 299.516 327.328C298.929 328.633 298.655 330.057 298.715 331.487C298.629 334.928 299.903 338.263 302.26 340.769C303.504 342.061 305.01 343.071 306.676 343.731C308.343 344.39 310.132 344.684 311.922 344.593C313.481 344.599 315.022 344.252 316.428 343.577C317.834 342.902 319.069 341.917 320.041 340.696H319.967Z" fill="#311B88"/>
<path d="M389.655 365.306C387.365 367.822 384.478 369.719 381.261 370.82C376.902 372.378 372.295 373.119 367.668 373.008C363.442 373.053 359.222 372.683 355.068 371.905C352.131 371.438 349.294 370.481 346.673 369.074C344.745 367.916 343.918 366.666 344.212 365.398L347.482 354.259C347.536 354.161 347.616 354.078 347.713 354.02C347.81 353.962 347.92 353.93 348.033 353.929C348.147 353.931 348.26 353.957 348.364 354.004C348.468 354.052 348.562 354.12 348.639 354.204C348.735 354.317 348.8 354.451 348.829 354.596C348.858 354.741 348.85 354.891 348.804 355.031C348.605 356.247 348.494 357.476 348.474 358.707C348.293 361.22 349.052 363.709 350.604 365.692C352.284 367.421 354.485 368.551 356.868 368.909C360.654 369.54 364.492 369.817 368.329 369.736C371.756 369.885 375.172 369.257 378.322 367.898C379.488 367.407 380.479 366.577 381.167 365.515C381.855 364.453 382.208 363.208 382.179 361.943C382.179 359.902 380.893 358.266 378.322 357.237C374.592 355.845 370.735 354.823 366.805 354.186C361.522 353.384 356.359 351.933 351.431 349.866C349.901 349.341 348.573 348.349 347.634 347.031C346.696 345.712 346.193 344.133 346.196 342.514C346.196 339.169 348.088 336.406 351.872 334.224C349.641 332.512 347.816 330.328 346.526 327.828C345.177 325.139 344.502 322.161 344.561 319.152C344.548 315.473 345.608 311.871 347.61 308.785C349.692 305.539 352.594 302.901 356.023 301.139C359.687 299.219 363.771 298.24 367.907 298.29C370.512 298.276 373.099 298.724 375.548 299.613C375.662 297.042 376.352 294.529 377.569 292.261C378.744 290.093 380.661 288.422 382.969 287.556C385.659 286.592 388.508 286.149 391.363 286.251C391.951 286.251 392.245 286.839 392.245 287.997C392.209 289.599 391.859 291.179 391.216 292.647C390.518 294.283 389.765 295.092 388.975 295.092C387.23 294.945 385.761 294.871 384.604 294.871C382.869 294.769 381.159 295.32 379.81 296.415C379.206 296.996 378.759 297.72 378.511 298.521C378.264 299.321 378.224 300.172 378.395 300.992C381.62 302.568 384.38 304.956 386.404 307.922C388.384 310.796 389.436 314.209 389.416 317.7C389.425 321.373 388.38 324.971 386.404 328.067C384.337 331.339 381.415 333.984 377.954 335.713C374.133 337.653 369.896 338.631 365.611 338.562C361.615 338.613 357.674 337.632 354.168 335.713C353.596 336.092 353.115 336.59 352.756 337.174C352.398 337.759 352.171 338.414 352.092 339.095C352.092 341.062 353.543 342.551 356.445 343.58C361.012 344.958 365.689 345.942 370.423 346.521C376.023 347.192 381.509 348.607 386.734 350.73C390.408 352.446 392.281 354.976 392.355 358.322C392.371 360.908 391.406 363.404 389.655 365.306ZM356.115 305.256C354.939 306.409 354.021 307.798 353.42 309.331C352.818 310.864 352.547 312.507 352.625 314.153C352.554 317.929 353.372 321.669 355.013 325.071C356.426 328.014 358.57 330.545 361.239 332.423C363.557 334.094 366.336 335.006 369.193 335.033C370.807 335.106 372.42 334.859 373.94 334.307C375.459 333.755 376.854 332.909 378.046 331.817C379.205 330.634 380.105 329.221 380.687 327.67C381.269 326.119 381.521 324.464 381.426 322.81C381.352 319.477 380.509 316.206 378.965 313.252C377.455 310.112 375.302 307.325 372.646 305.072C370.474 303.091 367.667 301.951 364.729 301.856C363.146 301.809 361.569 302.077 360.09 302.645C358.611 303.213 357.26 304.069 356.115 305.164V305.256Z" fill="#311B88"/>
<path d="M445.696 340.163C445.896 340.173 446.091 340.226 446.268 340.318C446.446 340.409 446.602 340.538 446.725 340.696C447.097 341.198 447.273 341.819 447.221 342.442C447.201 343.479 446.973 344.502 446.55 345.449C446.127 346.397 445.518 347.249 444.76 347.956C443.876 348.816 442.825 349.484 441.671 349.918C440.517 350.351 439.286 350.541 438.055 350.474C436.883 350.513 435.718 350.283 434.648 349.802C433.579 349.321 432.633 348.601 431.883 347.699C430.137 345.268 429.24 342.328 429.33 339.336C427.904 342.691 425.577 345.586 422.608 347.699C419.855 349.655 416.561 350.702 413.185 350.695C407.368 350.695 402.948 349.077 399.923 345.842C396.949 342.706 395.321 338.53 395.386 334.207C395.338 331.942 395.833 329.699 396.83 327.665C397.827 325.631 399.297 323.865 401.117 322.517C405.433 319.382 410.686 317.807 416.013 318.051C418.284 318.07 420.547 318.303 422.773 318.749C425.026 319.182 427.224 319.861 429.33 320.771V317.279C429.33 312.12 427.928 308.333 425.124 305.919C422.257 303.47 418.589 302.161 414.82 302.243C411.975 302.197 409.161 302.826 406.607 304.078C404.053 305.331 401.831 307.171 400.125 309.449C400.125 309.449 399.794 309.449 399.354 309.063C399.157 308.943 398.994 308.776 398.878 308.577C398.763 308.378 398.699 308.153 398.692 307.923C398.741 307.302 399.016 306.72 399.464 306.287C401.257 303.655 403.778 301.605 406.719 300.387C410.287 298.865 414.138 298.119 418.016 298.199C423.477 297.999 428.845 299.658 433.243 302.905C437.271 306.03 439.249 311.164 439.176 318.308L439.065 336.542C438.952 338.405 439.176 340.273 439.727 342.056C439.913 342.534 440.247 342.939 440.68 343.213C441.113 343.488 441.622 343.617 442.133 343.582C443.511 343.582 444.466 342.516 444.962 340.42C445.048 340.313 445.162 340.232 445.292 340.186C445.422 340.141 445.562 340.133 445.696 340.163V340.163ZM425.491 340.696C427.802 337.941 429.099 334.477 429.165 330.881C429.255 330.155 429.291 329.424 429.275 328.693C428.06 326.296 426.136 324.332 423.765 323.069C421.587 321.886 419.153 321.255 416.675 321.231C413.43 321.063 410.228 322.031 407.619 323.969C406.51 324.873 405.627 326.023 405.04 327.328C404.453 328.633 404.179 330.057 404.239 331.487C404.154 334.928 405.428 338.263 407.784 340.769C409.023 342.063 410.525 343.074 412.189 343.733C413.854 344.393 415.64 344.686 417.428 344.593C418.989 344.596 420.532 344.248 421.941 343.573C423.349 342.899 424.588 341.915 425.565 340.696H425.491Z" fill="#311B88"/>
<path d="M489.394 300.793C490.396 301.433 491.225 302.312 491.805 303.352C492.385 304.391 492.699 305.558 492.718 306.748C492.745 307.369 492.671 307.989 492.498 308.586L488.824 321.25C488.726 321.341 488.615 321.415 488.494 321.471C488.29 321.556 488.071 321.594 487.851 321.581C487.232 321.594 486.63 321.378 486.161 320.975C485.903 320.712 485.713 320.391 485.607 320.039C485.502 319.686 485.484 319.314 485.555 318.953C485.849 316.502 485.996 314.903 485.996 314.155C485.996 310.663 485.261 308.2 483.81 306.803C482.982 306.06 482.015 305.489 480.965 305.123C479.915 304.757 478.803 304.603 477.693 304.671C473.836 304.671 471.111 306.748 469.519 310.902C467.839 315.482 466.987 320.324 467.003 325.202V339.172C466.846 341.123 467.261 343.077 468.197 344.796C468.634 345.357 469.191 345.813 469.826 346.131C470.462 346.449 471.16 346.621 471.87 346.634C472.425 346.665 472.949 346.901 473.34 347.296C473.626 347.587 473.796 347.973 473.817 348.38C473.821 348.651 473.751 348.918 473.615 349.152C473.468 349.373 473.322 349.483 473.175 349.483C470.107 349.263 466.727 349.152 463.017 349.152C458.817 349.152 454.745 349.263 450.802 349.483C450.655 349.483 450.508 349.373 450.361 349.152C450.212 348.923 450.135 348.654 450.141 348.38C450.142 348.161 450.192 347.945 450.288 347.748C450.383 347.551 450.521 347.378 450.692 347.241C451.158 346.869 451.731 346.657 452.327 346.634C453.04 346.636 453.743 346.47 454.381 346.151C455.019 345.832 455.574 345.368 456 344.796C456.911 343.03 457.306 341.042 457.139 339.061V311.876C457.217 310.586 456.896 309.302 456.221 308.2C455.821 307.747 455.324 307.39 454.768 307.155C454.212 306.919 453.61 306.812 453.006 306.84C452.051 306.693 451.592 306.031 451.592 304.873L451.702 303.991C456.622 303.389 461.35 301.713 465.552 299.083C465.756 298.981 465.987 298.942 466.213 298.973C466.627 298.97 467.036 299.064 467.407 299.249C467.774 299.432 467.921 299.671 467.848 299.965C467.334 305.137 467.04 308.917 466.966 311.306C469.819 302.729 474.717 298.44 481.661 298.44C484.424 298.372 487.136 299.197 489.394 300.793V300.793Z" fill="#311B88"/>
<path d="M545.324 340.164C545.523 340.177 545.717 340.231 545.894 340.323C546.071 340.415 546.227 340.542 546.353 340.697C546.725 341.199 546.901 341.82 546.849 342.443C546.825 343.479 546.595 344.501 546.172 345.447C545.75 346.394 545.143 347.247 544.387 347.957C543.514 348.838 542.467 349.529 541.313 349.984C540.159 350.44 538.923 350.651 537.683 350.604C536.511 350.645 535.344 350.416 534.274 349.935C533.204 349.454 532.259 348.733 531.511 347.828C529.758 345.399 528.854 342.46 528.94 339.465C527.515 342.816 525.195 345.709 522.235 347.828C519.476 349.784 516.176 350.831 512.794 350.824C506.972 350.824 502.563 349.207 499.532 345.972C496.566 342.833 494.944 338.657 495.014 334.337C494.966 332.072 495.461 329.828 496.458 327.794C497.455 325.76 498.925 323.995 500.745 322.647C505.061 319.511 510.313 317.936 515.641 318.18C517.911 318.201 520.174 318.434 522.401 318.879C524.648 319.309 526.841 319.987 528.94 320.9V317.408C528.94 312.249 527.544 308.463 524.752 306.049C521.878 303.598 518.204 302.289 514.429 302.373C511.585 302.328 508.771 302.957 506.217 304.21C503.663 305.462 501.442 307.302 499.735 309.578C499.735 309.578 499.404 309.578 498.981 309.192C498.785 309.072 498.621 308.905 498.506 308.706C498.39 308.507 498.327 308.282 498.32 308.052C498.369 307.431 498.644 306.849 499.092 306.416C500.881 303.781 503.403 301.73 506.347 300.516C509.915 298.994 513.766 298.249 517.643 298.329C523.099 298.131 528.46 299.79 532.852 303.034C536.893 306.159 538.877 311.293 538.804 318.437L538.693 336.671C538.58 338.534 538.804 340.402 539.355 342.185C539.538 342.661 539.868 343.066 540.298 343.341C540.728 343.615 541.234 343.745 541.742 343.711C543.138 343.711 544.075 342.645 544.589 340.55C544.659 340.419 544.766 340.312 544.897 340.243C545.028 340.174 545.177 340.146 545.324 340.164V340.164ZM525.119 340.697C527.43 337.942 528.727 334.477 528.793 330.881C528.864 330.154 528.895 329.424 528.885 328.694C527.67 326.297 525.745 324.333 523.374 323.069C521.198 321.882 518.763 321.251 516.284 321.231C513.04 321.066 509.839 322.034 507.229 323.97C506.119 324.873 505.236 326.023 504.649 327.328C504.063 328.634 503.789 330.058 503.849 331.488C503.763 334.928 505.037 338.264 507.394 340.77C508.637 342.062 510.143 343.072 511.81 343.731C513.477 344.391 515.266 344.685 517.056 344.593C518.615 344.6 520.156 344.252 521.562 343.577C522.968 342.902 524.203 341.918 525.174 340.697H525.119Z" fill="#311B88"/>
<path d="M557.706 347.202C555.636 344.751 554.595 341.075 554.583 336.174V306.489C554.644 305.476 554.519 304.461 554.216 303.492C553.959 302.941 553.316 302.665 552.379 302.665H549.091C548.959 302.684 548.824 302.671 548.698 302.629C548.571 302.586 548.457 302.515 548.362 302.421C548.268 302.326 548.197 302.211 548.154 302.085C548.112 301.958 548.099 301.823 548.118 301.691C548.128 301.24 548.305 300.808 548.613 300.478C549.009 300.092 549.531 299.864 550.083 299.835C552.658 299.601 555.105 298.609 557.118 296.986C559.258 294.89 560.853 292.303 561.765 289.45C561.944 288.963 562.27 288.543 562.698 288.25C563.126 287.957 563.634 287.805 564.153 287.814C564.741 287.814 565.035 287.961 565.035 288.255C565.035 292.188 564.924 295.313 564.704 297.647V297.978C564.665 298.262 564.69 298.551 564.776 298.824C564.861 299.097 565.006 299.348 565.2 299.559C565.708 299.864 566.3 299.999 566.89 299.945H582.062C582.19 299.945 582.337 300.055 582.484 300.313C582.63 300.564 582.706 300.849 582.705 301.14C582.721 301.538 582.582 301.926 582.319 302.224C582.174 302.378 581.997 302.498 581.8 302.574C581.603 302.65 581.391 302.682 581.18 302.665H567.643C566.766 302.572 565.888 302.83 565.2 303.382C564.932 303.704 564.73 304.077 564.607 304.477C564.484 304.878 564.442 305.299 564.484 305.717V335.53C564.3 337.94 565.021 340.332 566.504 342.239C567.166 342.981 567.983 343.567 568.898 343.954C569.812 344.342 570.801 344.522 571.794 344.482C573.675 344.454 575.524 343.989 577.194 343.121C579.116 342.164 580.837 340.848 582.264 339.243C582.484 339.023 582.778 339.023 583.146 339.243C583.328 339.374 583.474 339.548 583.571 339.751C583.667 339.953 583.71 340.177 583.697 340.401C583.544 341.501 582.995 342.508 582.154 343.232C579.945 345.654 577.254 347.589 574.255 348.911C571.695 350.068 568.927 350.694 566.118 350.749C564.539 350.835 562.961 350.56 561.504 349.945C560.046 349.331 558.748 348.393 557.706 347.202V347.202Z" fill="#311B88"/>
<path d="M645.322 340.161C645.517 340.169 645.707 340.221 645.879 340.313C646.051 340.405 646.199 340.536 646.313 340.694C646.633 341.218 646.781 341.828 646.736 342.44C646.715 343.476 646.489 344.497 646.069 345.443C645.65 346.39 645.046 347.244 644.293 347.954C643.406 348.814 642.351 349.481 641.194 349.915C640.037 350.348 638.804 350.538 637.57 350.472C636.35 350.506 635.14 350.246 634.04 349.715C632.941 349.185 631.985 348.398 631.252 347.421C629.468 344.751 628.621 341.564 628.845 338.36V319.979C628.845 314.599 627.811 310.592 625.741 307.958C624.709 306.664 623.385 305.634 621.878 304.95C620.371 304.266 618.724 303.949 617.071 304.024C614.462 304.048 611.937 304.955 609.908 306.598C607.533 308.544 605.71 311.079 604.618 313.95C603.25 317.463 602.582 321.209 602.653 324.978V338.948C602.491 340.901 602.913 342.859 603.865 344.572C604.299 345.136 604.855 345.594 605.491 345.912C606.128 346.23 606.827 346.401 607.538 346.41C608.093 346.441 608.617 346.677 609.008 347.072C609.305 347.357 609.483 347.745 609.504 348.156C609.51 348.43 609.433 348.699 609.283 348.929C609.136 349.149 608.99 349.259 608.843 349.259C605.793 349.039 602.395 348.929 598.685 348.929C594.473 348.929 590.401 349.039 586.47 349.259C586.323 349.259 586.176 349.149 586.029 348.929C585.88 348.699 585.803 348.43 585.809 348.156C585.81 347.937 585.86 347.721 585.956 347.524C586.051 347.327 586.189 347.154 586.36 347.017C586.828 346.647 587.4 346.435 587.995 346.41C588.708 346.412 589.411 346.246 590.049 345.927C590.687 345.608 591.242 345.144 591.668 344.572C592.588 342.808 592.989 340.82 592.826 338.837L592.568 286.268C592.711 284.328 592.468 282.379 591.852 280.534C591.62 280.091 591.263 279.726 590.825 279.484C590.388 279.242 589.889 279.134 589.391 279.173C588.916 279.122 588.48 278.888 588.175 278.521C587.87 278.154 587.72 277.683 587.756 277.207C587.75 276.863 587.826 276.523 587.976 276.214C593.083 275.633 597.924 273.633 601.955 270.443H602.065C602.523 270.455 602.971 270.581 603.369 270.81C603.81 271.068 603.957 271.564 603.81 272.299C603.329 275.625 603.034 278.976 602.928 282.335C602.708 286.93 602.597 291.66 602.597 296.525V312.59C603.646 308.555 605.894 304.933 609.045 302.205C612.131 299.534 616.096 298.1 620.176 298.179C622.69 298.034 625.207 298.437 627.55 299.361C629.894 300.284 632.009 301.706 633.75 303.528C636.983 307.094 638.617 312.443 638.617 319.574V336.613C638.524 338.438 638.741 340.266 639.26 342.017C639.437 342.505 639.767 342.923 640.201 343.207C640.635 343.492 641.149 343.629 641.666 343.598C642.016 343.616 642.365 343.551 642.685 343.407C643.004 343.263 643.285 343.045 643.503 342.771C643.984 342.061 644.332 341.27 644.532 340.437C644.62 340.316 644.743 340.225 644.884 340.175C645.025 340.126 645.178 340.121 645.322 340.161V340.161Z" fill="#311B88"/>
<path d="M708.874 340.16C709.069 340.168 709.26 340.22 709.431 340.313C709.603 340.405 709.752 340.535 709.866 340.693C710.202 341.211 710.357 341.825 710.307 342.44C710.304 343.491 710.089 344.531 709.675 345.497C709.262 346.463 708.658 347.336 707.901 348.064C707.023 348.913 705.979 349.57 704.834 349.994C703.69 350.418 702.47 350.6 701.251 350.527C700.03 350.55 698.821 350.286 697.72 349.756C696.619 349.226 695.658 348.445 694.914 347.476C693.094 344.821 692.226 341.626 692.453 338.414V320.181C692.453 314.789 691.418 310.782 689.349 308.159C688.32 306.861 686.997 305.828 685.489 305.143C683.982 304.459 682.333 304.145 680.679 304.226C678.075 304.249 675.556 305.157 673.534 306.799C671.148 308.736 669.322 311.274 668.244 314.152C666.868 317.662 666.2 321.41 666.278 325.18V339.039C666.112 340.991 666.528 342.948 667.472 344.664C667.91 345.224 668.466 345.68 669.102 345.998C669.737 346.316 670.436 346.488 671.146 346.502C672.45 346.722 673.111 347.31 673.111 348.248C673.117 348.522 673.04 348.791 672.891 349.02C672.744 349.241 672.597 349.351 672.45 349.351C669.401 349.13 666.021 349.02 662.311 349.02C658.086 349.02 654.015 349.13 650.096 349.351C649.931 349.351 649.802 349.241 649.655 349.02C649.506 348.791 649.429 348.522 649.435 348.248C649.436 348.029 649.486 347.813 649.582 347.616C649.677 347.419 649.815 347.245 649.986 347.108C650.45 346.733 651.024 346.52 651.621 346.502C652.333 346.5 653.036 346.334 653.673 346.015C654.311 345.696 654.866 345.233 655.294 344.664C656.167 342.866 656.542 340.866 656.378 338.874V311.872C656.449 310.587 656.142 309.309 655.496 308.196C655.112 307.739 654.626 307.378 654.077 307.142C653.529 306.906 652.933 306.801 652.337 306.836C652.088 306.824 651.846 306.747 651.636 306.611C651.426 306.475 651.256 306.287 651.143 306.064C650.915 305.629 650.807 305.14 650.831 304.649C650.812 304.368 650.849 304.087 650.941 303.822C655.862 303.222 660.59 301.547 664.791 298.914C664.995 298.812 665.225 298.773 665.452 298.804C665.866 298.796 666.276 298.891 666.646 299.079C667.013 299.263 667.16 299.502 667.087 299.796C666.567 304.066 666.279 308.361 666.223 312.663C667.3 308.646 669.559 305.047 672.707 302.333C675.755 299.661 679.677 298.203 683.728 298.234C686.245 298.095 688.762 298.501 691.108 299.424C693.454 300.347 695.573 301.765 697.321 303.583C700.553 307.161 702.17 312.516 702.17 319.647L702.28 336.576C702.175 338.435 702.38 340.299 702.886 342.09C703.051 342.567 703.37 342.976 703.792 343.252C704.214 343.528 704.716 343.656 705.219 343.616C705.569 343.637 705.919 343.573 706.239 343.429C706.559 343.285 706.839 343.065 707.056 342.789C707.535 342.076 707.89 341.287 708.103 340.454C708.187 340.334 708.306 340.241 708.443 340.189C708.581 340.136 708.731 340.126 708.874 340.16V340.16Z" fill="#311B88"/>
<path d="M763.666 340.162C763.865 340.176 764.059 340.23 764.236 340.322C764.413 340.413 764.569 340.541 764.695 340.695C765.066 341.198 765.243 341.819 765.191 342.442C765.167 343.478 764.937 344.5 764.514 345.446C764.091 346.393 763.485 347.246 762.729 347.956C761.845 348.814 760.793 349.481 759.639 349.914C758.486 350.347 757.255 350.538 756.025 350.474C754.853 350.515 753.686 350.286 752.616 349.805C751.546 349.324 750.601 348.603 749.853 347.698C748.1 345.27 747.196 342.33 747.282 339.335C745.857 342.686 743.537 345.58 740.577 347.698C737.818 349.655 734.518 350.702 731.136 350.695C725.313 350.695 720.905 349.077 717.874 345.842C714.908 342.703 713.286 338.527 713.356 334.207C713.308 331.942 713.803 329.698 714.8 327.664C715.797 325.63 717.267 323.865 719.087 322.517C723.403 319.382 728.655 317.807 733.983 318.05C736.253 318.07 738.516 318.304 740.743 318.749C742.99 319.179 745.183 319.857 747.282 320.771V317.278C747.282 312.119 745.886 308.333 743.094 305.919C740.22 303.468 736.546 302.16 732.771 302.243C729.927 302.198 727.113 302.828 724.559 304.08C722.005 305.332 719.784 307.172 718.076 309.448C718.076 309.448 717.746 309.448 717.323 309.062C717.127 308.943 716.963 308.776 716.848 308.577C716.732 308.377 716.668 308.153 716.662 307.923C716.711 307.301 716.986 306.72 717.434 306.287C719.247 303.637 721.803 301.584 724.781 300.386C728.349 298.865 732.199 298.119 736.077 298.199C741.533 298.001 746.894 299.66 751.286 302.905C755.327 306.029 757.311 311.164 757.237 318.308L757.127 336.541C757.014 338.404 757.238 340.272 757.788 342.056C757.971 342.532 758.302 342.937 758.732 343.211C759.161 343.486 759.668 343.615 760.176 343.581C761.572 343.581 762.509 342.515 763.023 340.42C763.101 340.327 763.2 340.255 763.312 340.211C763.425 340.166 763.546 340.149 763.666 340.162ZM743.461 340.695C745.772 337.941 747.069 334.476 747.135 330.88C747.176 330.152 747.176 329.421 747.135 328.693C745.92 326.296 743.995 324.331 741.624 323.068C739.448 321.881 737.013 321.25 734.534 321.23C731.29 321.065 728.089 322.033 725.479 323.969C724.369 324.872 723.486 326.022 722.899 327.327C722.313 328.633 722.038 330.057 722.099 331.487C722.013 334.927 723.287 338.263 725.644 340.769C726.887 342.061 728.393 343.071 730.06 343.73C731.727 344.39 733.516 344.684 735.306 344.592C736.881 344.612 738.439 344.272 739.862 343.596C741.286 342.921 742.535 341.929 743.516 340.695H743.461Z" fill="#311B88"/>
<path d="M296.18 455.466C296.186 455.656 296.148 455.845 296.069 456.018C296.013 456.139 295.939 456.251 295.849 456.349C295.015 456.357 294.181 456.32 293.351 456.238L290.504 456.128H275.809L272.76 456.238C272.026 456.238 271.052 456.349 269.803 456.349C269.713 456.254 269.644 456.141 269.601 456.018C269.522 455.845 269.484 455.656 269.491 455.466C269.491 454.603 270.097 454.014 271.328 453.72C272.686 453.536 274.018 453.19 275.295 452.691C275.762 452.482 276.182 452.18 276.529 451.804C276.877 451.428 277.144 450.986 277.316 450.504C277.824 449.015 278.048 447.443 277.977 445.872V391.924C277.977 391.556 277.83 391.373 277.536 391.373C277.315 391.373 277.132 391.63 277.003 392.145L250.7 449.474C250.488 449.992 250.19 450.471 249.818 450.89C249.66 451.041 249.473 451.158 249.267 451.234C249.062 451.31 248.843 451.343 248.625 451.331C248.14 451.341 247.667 451.181 247.288 450.879C246.909 450.577 246.647 450.151 246.549 449.677L222.101 393.119C221.954 392.678 221.752 392.476 221.458 392.476C221.164 392.476 221.017 392.659 221.017 393.009L221.127 445.872C221.056 447.443 221.28 449.015 221.789 450.504C221.964 450.989 222.238 451.434 222.591 451.81C222.945 452.186 223.372 452.486 223.846 452.691C225.187 453.189 226.579 453.534 227.997 453.72C229.301 454.014 229.963 454.603 229.963 455.466C229.964 455.68 229.907 455.89 229.797 456.073C229.687 456.257 229.595 456.349 229.522 456.349C228.364 456.349 227.409 456.349 226.693 456.238L223.423 456.128H216.223L213.376 456.238C212.509 456.322 211.639 456.359 210.768 456.349C210.678 456.251 210.603 456.139 210.547 456.018C210.469 455.845 210.431 455.656 210.437 455.466C210.437 454.603 211.007 454.014 212.182 453.72C213.406 453.544 214.599 453.198 215.727 452.691C216.58 452.203 217.231 451.428 217.564 450.504C218.065 449.013 218.283 447.442 218.207 445.872L218.427 385.215C217.745 384.364 216.895 383.663 215.929 383.156C214.76 382.625 213.524 382.254 212.256 382.054C211.154 381.759 210.621 381.19 210.621 380.216C210.615 380.026 210.652 379.837 210.731 379.664C210.779 379.549 210.847 379.443 210.933 379.352C211.773 379.343 212.613 379.38 213.45 379.462L216.297 379.572H225.664C226.134 379.53 226.605 379.646 227.001 379.903C227.397 380.159 227.696 380.541 227.85 380.988L252.243 436.792C252.39 437.233 252.61 437.453 252.904 437.453C253.253 437.453 253.474 437.233 253.547 436.792L278.656 381.116C278.808 380.69 279.068 380.31 279.41 380.013C279.806 379.772 280.269 379.663 280.732 379.701H290.651L293.498 379.591C294.214 379.591 295.133 379.48 296.216 379.48C296.303 379.575 296.377 379.68 296.437 379.793C296.515 379.966 296.553 380.154 296.547 380.344C296.547 381.226 295.959 381.796 294.71 382.182C293.446 382.374 292.212 382.726 291.036 383.23C290.602 383.451 290.215 383.757 289.9 384.13C289.585 384.502 289.347 384.933 289.2 385.399C288.732 386.903 288.527 388.476 288.594 390.049V445.964C288.527 447.531 288.732 449.098 289.2 450.596C289.501 451.538 290.161 452.323 291.036 452.783C292.208 453.292 293.444 453.638 294.71 453.812C295.629 454.014 296.18 454.603 296.18 455.466Z" fill="#311B88"/>
<path d="M345.921 445.318C346.076 445.324 346.227 445.367 346.361 445.443C346.495 445.52 346.609 445.629 346.692 445.759C346.899 446.042 347.009 446.383 347.005 446.733C347.023 447.324 346.835 447.903 346.472 448.369C341.66 454.558 334.453 457.621 324.853 457.56C320.574 457.602 316.36 456.511 312.638 454.398C308.938 452.294 305.883 449.218 303.803 445.502C301.562 441.445 300.434 436.866 300.533 432.231C300.451 427.387 301.595 422.6 303.858 418.317C306.006 414.267 309.261 410.914 313.244 408.649C317.522 406.258 322.36 405.052 327.259 405.156C332.189 404.972 337.011 406.622 340.796 409.788C342.605 411.426 344.023 413.448 344.948 415.706C345.873 417.965 346.281 420.402 346.141 422.838C346.1 425.722 345.661 428.585 344.837 431.349L309.258 431.9C310.018 435.766 311.722 439.385 314.218 442.432C316.463 445.239 319.297 447.516 322.52 449.105C325.313 450.52 328.391 451.28 331.52 451.329C333.925 451.321 336.308 450.879 338.555 450.024C341.005 449.106 343.197 447.612 344.948 445.667C345.077 445.546 345.231 445.452 345.398 445.392C345.566 445.332 345.744 445.307 345.921 445.318V445.318ZM312.693 413.538C309.877 417.052 308.457 421.484 308.707 425.982C308.707 426.717 308.707 427.82 308.928 429.272L319.948 429.051C324.43 428.978 327.865 428.941 330.253 428.941C331.649 428.867 333.578 428.831 336.039 428.831C336.712 427.315 337.05 425.673 337.031 424.015C337.01 421.546 336.412 419.117 335.286 416.92C334.165 414.666 332.536 412.702 330.529 411.185C328.598 409.728 326.242 408.946 323.824 408.961C321.749 408.855 319.676 409.211 317.755 410.002C315.834 410.794 314.111 412.001 312.711 413.538H312.693Z" fill="#311B88"/>
<path d="M440.222 447.065C440.423 447.078 440.618 447.134 440.796 447.229C440.973 447.324 441.128 447.456 441.25 447.616C441.65 448.14 441.828 448.8 441.746 449.454C441.722 450.491 441.492 451.512 441.07 452.459C440.647 453.406 440.04 454.259 439.285 454.968C438.4 455.824 437.347 456.488 436.194 456.918C435.04 457.348 433.81 457.536 432.581 457.468C431.357 457.505 430.143 457.246 429.041 456.715C427.938 456.184 426.979 455.396 426.244 454.417C424.466 451.745 423.626 448.557 423.856 445.355V423.298C424.067 420.07 423.027 416.884 420.954 414.402C420.066 413.405 418.976 412.609 417.757 412.067C416.537 411.525 415.216 411.25 413.882 411.259C411.86 411.135 409.845 411.587 408.07 412.563C406.295 413.539 404.832 414.999 403.853 416.773C401.655 420.744 400.558 425.231 400.675 429.768V445.612C400.54 447.617 400.9 449.624 401.722 451.458C402.075 452.058 402.576 452.558 403.178 452.909C403.779 453.26 404.461 453.45 405.157 453.461C406.461 453.682 407.123 454.343 407.123 455.428C407.123 456.016 407.012 456.31 406.792 456.31C405.041 456.163 403.112 456.09 401.006 456.09L393.255 456.2C392.171 456.2 390.022 456.2 386.826 456.42C386.679 456.42 386.532 456.292 386.385 456.034C386.242 455.789 386.166 455.51 386.164 455.226C386.178 454.863 386.298 454.512 386.511 454.217C386.723 453.923 387.018 453.698 387.358 453.571C388.503 453.268 389.496 452.555 390.15 451.568C390.854 449.781 391.137 447.857 390.977 445.943V423.335C391.189 420.088 390.106 416.888 387.965 414.439C387.025 413.434 385.886 412.637 384.621 412.099C383.356 411.561 381.992 411.294 380.617 411.314C378.835 411.201 377.054 411.549 375.445 412.325C373.837 413.101 372.455 414.278 371.433 415.744C369.297 419.102 368.075 422.961 367.888 426.938V446.054C367.702 448.008 368.025 449.977 368.825 451.77C369.158 452.255 369.584 452.667 370.08 452.983C370.575 453.299 371.129 453.511 371.709 453.608C372.125 453.68 372.503 453.892 372.781 454.21C373.059 454.528 373.218 454.932 373.233 455.354C373.239 455.628 373.162 455.897 373.013 456.126C372.866 456.347 372.719 456.457 372.59 456.457C369.449 456.237 366.29 456.126 363.094 456.126C359.421 456.126 355.637 456.237 351.743 456.457C351.596 456.457 351.449 456.347 351.302 456.126C351.152 455.897 351.076 455.628 351.081 455.354C351.085 455.136 351.136 454.921 351.232 454.724C351.327 454.527 351.463 454.353 351.632 454.215C352.099 453.843 352.672 453.63 353.267 453.608C353.98 453.607 354.682 453.44 355.32 453.121C355.957 452.802 356.512 452.34 356.941 451.77C357.85 450.01 358.245 448.028 358.08 446.054V418.777C358.128 417.406 357.728 416.058 356.941 414.935C356.541 414.482 356.044 414.125 355.488 413.89C354.932 413.654 354.33 413.547 353.726 413.575C352.771 413.428 352.294 412.784 352.294 411.608L352.404 410.744C357.329 410.131 362.062 408.45 366.272 405.818C366.47 405.718 366.694 405.68 366.915 405.708C367.335 405.703 367.75 405.797 368.127 405.984C368.494 406.167 368.641 406.406 368.568 406.7C368.053 411.872 367.76 415.695 367.686 418.17C368.871 414.575 371.049 411.388 373.968 408.98C376.995 406.594 380.731 405.288 384.584 405.268C388.437 405.248 392.187 406.515 395.238 408.869C396.736 410.192 397.956 411.799 398.826 413.598C399.696 415.396 400.2 417.351 400.308 419.346C401.343 415.452 403.51 411.953 406.535 409.292C409.678 406.57 413.731 405.132 417.886 405.267C420.546 405.233 423.173 405.865 425.527 407.105C427.976 408.437 429.995 410.439 431.35 412.876C432.926 415.769 433.699 419.031 433.591 422.324V443.517C433.478 445.38 433.702 447.248 434.252 449.031C434.439 449.509 434.773 449.914 435.205 450.189C435.638 450.463 436.147 450.592 436.658 450.557C438.036 450.557 438.973 449.509 439.487 447.395C439.564 447.275 439.675 447.179 439.805 447.12C439.936 447.061 440.08 447.042 440.222 447.065Z" fill="#311B88"/>
<path d="M456.919 454.6C453.128 452.561 450.004 449.472 447.919 445.704C445.698 441.43 444.583 436.667 444.676 431.851C444.769 427.034 446.067 422.318 448.452 418.133C450.902 414.078 454.414 410.773 458.609 408.575C462.928 406.301 467.744 405.138 472.624 405.193C477.449 405.091 482.221 406.216 486.492 408.465C490.374 410.54 493.6 413.66 495.805 417.471C498.046 421.385 499.201 425.827 499.148 430.338C499.254 435.334 497.983 440.262 495.474 444.583C493.002 448.693 489.425 452.024 485.151 454.196C480.504 456.55 475.352 457.73 470.144 457.633C465.55 457.768 460.997 456.724 456.919 454.6V454.6ZM485.886 449.197C488.742 445.879 490.244 441.607 490.092 437.231C490.26 432.863 489.437 428.515 487.686 424.511C485.992 420.373 483.401 416.663 480.1 413.648C477.309 410.92 473.586 409.356 469.685 409.273C467.517 409.136 465.345 409.471 463.319 410.255C461.292 411.038 459.46 412.253 457.948 413.814C455.113 417.1 453.612 421.33 453.742 425.669C453.532 430.242 454.335 434.805 456.093 439.032C457.704 443.126 460.311 446.753 463.679 449.582C466.72 452.182 470.59 453.61 474.589 453.608C476.678 453.719 478.766 453.383 480.714 452.623C482.662 451.862 484.425 450.694 485.886 449.197V449.197Z" fill="#311B88"/>
<path d="M543.378 407.693C544.383 408.333 545.214 409.211 545.798 410.251C546.381 411.29 546.698 412.457 546.721 413.649C546.75 414.269 546.676 414.89 546.501 415.487L542.827 428.151C542.729 428.241 542.618 428.316 542.497 428.372C542.287 428.456 542.061 428.494 541.835 428.482C541.217 428.491 540.617 428.275 540.146 427.875C539.89 427.612 539.702 427.29 539.6 426.938C539.497 426.585 539.483 426.213 539.558 425.853C539.833 423.39 539.98 421.791 539.98 421.056C539.98 417.564 539.264 415.101 537.794 413.704C536.97 412.962 536.006 412.392 534.959 412.026C533.912 411.66 532.803 411.505 531.696 411.572C527.839 411.572 525.108 413.649 523.504 417.803C521.832 422.384 520.986 427.226 521.006 432.103V446.091C520.842 448.036 521.258 449.987 522.2 451.697C522.635 452.259 523.192 452.717 523.827 453.035C524.463 453.353 525.163 453.524 525.874 453.535C526.429 453.562 526.954 453.798 527.343 454.197C527.637 454.484 527.814 454.87 527.839 455.281C527.845 455.555 527.768 455.824 527.619 456.053C527.472 456.274 527.325 456.384 527.178 456.384C524.129 456.163 520.749 456.053 517.038 456.053C512.814 456.053 508.736 456.163 504.805 456.384C504.658 456.384 504.53 456.274 504.383 456.053C504.233 455.824 504.157 455.555 504.162 455.281C504.166 455.064 504.216 454.851 504.307 454.654C504.399 454.458 504.531 454.283 504.695 454.141C505.168 453.77 505.747 453.557 506.348 453.535C507.061 453.533 507.764 453.367 508.401 453.048C509.038 452.729 509.593 452.266 510.022 451.697C510.923 449.934 511.317 447.955 511.161 445.98V418.777C511.254 417.453 510.926 416.134 510.224 415.009C509.825 414.554 509.329 414.195 508.773 413.96C508.216 413.724 507.613 413.618 507.01 413.649C506.073 413.502 505.595 412.858 505.595 411.682L505.705 410.818C510.625 410.205 515.352 408.524 519.555 405.892C519.759 405.79 519.99 405.751 520.216 405.782C520.631 405.774 521.041 405.869 521.41 406.057C521.777 406.241 521.924 406.48 521.851 406.774C521.337 411.939 521.061 415.726 520.988 418.133C523.816 409.556 528.714 405.267 535.682 405.267C538.443 405.219 541.144 406.071 543.378 407.693V407.693Z" fill="#311B88"/>
<path d="M570.508 453.535C571.738 453.756 572.344 454.344 572.344 455.281C572.355 455.531 572.298 455.779 572.179 455.998C572.102 456.137 572.009 456.266 571.904 456.384C568.854 456.164 565.456 456.053 561.746 456.053C557.46 456.053 553.388 456.164 549.531 456.384C549.531 456.384 549.366 456.274 549.256 456.053C549.141 455.812 549.084 455.548 549.09 455.281C549.09 454.197 549.752 453.609 551.056 453.535C551.783 453.539 552.5 453.361 553.142 453.018C553.783 452.674 554.329 452.176 554.729 451.568C555.6 449.776 555.981 447.784 555.831 445.797V418.777C555.92 417.461 555.613 416.149 554.95 415.009C554.564 414.553 554.078 414.193 553.53 413.957C552.982 413.721 552.386 413.615 551.79 413.649C550.835 413.502 550.376 412.858 550.376 411.682L550.486 410.818C555.393 410.15 560.109 408.473 564.336 405.892C564.54 405.79 564.771 405.751 564.997 405.782C565.411 405.779 565.82 405.873 566.191 406.058C566.558 406.241 566.705 406.48 566.632 406.774C566.632 407.491 566.375 409.219 566.081 411.903C565.777 414.803 565.629 417.717 565.64 420.633V445.87C565.603 450.747 567.226 453.302 570.508 453.535ZM554.399 394.147C553.823 393.69 553.359 393.109 553.041 392.447C552.722 391.784 552.559 391.058 552.562 390.324C552.59 389.482 552.805 388.657 553.193 387.91C553.581 387.162 554.131 386.511 554.803 386.004C556.354 384.835 558.262 384.237 560.203 384.313C561.888 384.222 563.547 384.766 564.85 385.839C565.399 386.333 565.835 386.941 566.127 387.62C566.418 388.299 566.559 389.033 566.54 389.772C566.54 390.592 566.347 391.4 565.977 392.131C565.607 392.863 565.07 393.496 564.409 393.981C562.858 395.151 560.95 395.748 559.009 395.672C557.335 395.719 555.7 395.165 554.399 394.11V394.147Z" fill="#311B88"/>
<path d="M627.779 447.067C627.982 447.078 628.182 447.133 628.362 447.228C628.543 447.323 628.701 447.456 628.826 447.618C629.225 448.143 629.403 448.802 629.321 449.456C629.297 450.493 629.067 451.514 628.645 452.461C628.222 453.408 627.616 454.261 626.86 454.971C625.972 455.828 624.916 456.492 623.759 456.923C622.603 457.353 621.369 457.539 620.137 457.47C618.968 457.509 617.805 457.279 616.739 456.797C615.672 456.316 614.73 455.597 613.984 454.695C612.231 452.266 611.327 449.327 611.412 446.332C609.987 449.683 607.668 452.576 604.708 454.695C601.951 456.657 598.65 457.704 595.267 457.691C589.444 457.691 585.036 456.073 582.005 452.838C579.038 449.699 577.417 445.523 577.487 441.203C577.438 438.938 577.934 436.695 578.931 434.661C579.928 432.627 581.398 430.862 583.217 429.513C587.528 426.381 592.774 424.806 598.096 425.047C600.372 425.066 602.641 425.3 604.873 425.745C607.12 426.179 609.313 426.856 611.412 427.767V424.275C611.412 419.116 610.017 415.329 607.225 412.915C604.351 410.465 600.677 409.156 596.902 409.239C594.056 409.192 591.239 409.823 588.684 411.079C586.129 412.334 583.909 414.18 582.207 416.463C582.207 416.463 581.877 416.463 581.454 416.077C581.258 415.952 581.096 415.781 580.981 415.58C580.866 415.378 580.801 415.151 580.793 414.919C580.847 414.299 581.12 413.719 581.564 413.283C583.358 410.652 585.879 408.602 588.82 407.383C592.383 405.869 596.227 405.129 600.098 405.214C605.557 405.008 610.925 406.66 615.325 409.901C619.366 413.026 621.35 418.172 621.276 425.304L621.166 443.538C621.053 445.401 621.277 447.269 621.827 449.052C622.01 449.528 622.341 449.933 622.771 450.207C623.2 450.482 623.706 450.612 624.215 450.578C625.593 450.578 626.548 449.53 627.062 447.416C627.134 447.293 627.24 447.195 627.367 447.133C627.495 447.07 627.638 447.048 627.779 447.067V447.067ZM607.574 447.618C609.882 444.855 611.178 441.386 611.247 437.785C611.337 437.059 611.374 436.328 611.357 435.597C610.137 433.203 608.215 431.241 605.847 429.973C603.671 428.786 601.235 428.154 598.757 428.135C595.512 427.97 592.311 428.938 589.701 430.873C588.589 431.779 587.705 432.932 587.118 434.24C586.531 435.549 586.258 436.977 586.322 438.41C586.268 441.817 587.539 445.112 589.867 447.6C591.114 448.886 592.621 449.89 594.287 450.546C595.953 451.202 597.74 451.495 599.528 451.405C601.078 451.42 602.612 451.088 604.017 450.433C605.422 449.778 606.662 448.816 607.647 447.618H607.574Z" fill="#311B88"/>
<path d="M637.973 387.492C637.739 387.05 637.381 386.687 636.944 386.445C636.507 386.204 636.009 386.095 635.512 386.132C635.259 386.132 635.009 386.081 634.778 385.98C634.546 385.88 634.337 385.733 634.165 385.549C633.993 385.364 633.86 385.146 633.776 384.908C633.691 384.67 633.657 384.417 633.675 384.165C633.676 383.863 633.752 383.566 633.895 383.301C638.999 382.594 643.841 380.602 647.965 377.511H648.296C648.714 377.504 649.122 377.64 649.453 377.897C649.626 378.073 649.751 378.29 649.815 378.529C649.88 378.767 649.881 379.018 649.82 379.257C649.345 382.548 649.038 385.861 648.902 389.183C648.645 393.704 648.516 398.373 648.516 403.501V445.869C648.516 450.771 650.151 453.313 653.42 453.497C654.669 453.718 655.257 454.306 655.257 455.243C655.268 455.493 655.211 455.741 655.092 455.96C655.02 456.097 654.933 456.227 654.835 456.346C651.767 456.126 648.388 456.015 644.677 456.015C640.379 456.015 636.283 456.126 632.352 456.346C632.246 456.228 632.154 456.099 632.077 455.96C631.958 455.741 631.901 455.493 631.911 455.243C631.911 454.159 632.573 453.571 633.877 453.497C634.601 453.485 635.313 453.301 635.951 452.959C636.59 452.617 637.139 452.127 637.55 451.53C638.454 449.748 638.848 447.751 638.689 445.759L638.579 393.337C638.759 391.368 638.553 389.382 637.973 387.492Z" fill="#311B88"/>
<path d="M704.356 460.316C698.748 457.144 694.126 452.481 691.002 446.843C687.601 440.703 685.883 433.772 686.025 426.753C685.951 419.377 687.854 412.116 691.535 405.725C695.076 399.581 700.202 394.503 706.377 391.02C712.594 387.416 719.653 385.52 726.839 385.525C731.212 385.472 735.562 386.174 739.696 387.602C743.136 388.72 746.276 390.606 748.88 393.116C749.912 394.049 750.743 395.181 751.324 396.445C751.905 397.709 752.223 399.078 752.26 400.468C752.285 401.166 752.217 401.865 752.058 402.545L747.356 419.474C747.356 419.621 747.062 419.695 746.493 419.695C745.817 419.726 745.156 419.488 744.656 419.033C744.374 418.748 744.159 418.404 744.025 418.026C743.892 417.647 743.844 417.244 743.884 416.845C744.229 414.718 744.413 412.567 744.435 410.412C744.498 407.115 743.872 403.841 742.599 400.799C741.152 397.268 738.565 394.324 735.251 392.436C731.903 390.502 728.096 389.505 724.23 389.55C719.107 389.43 714.041 390.653 709.536 393.097C705.3 395.499 701.854 399.082 699.617 403.409C697.067 408.451 695.805 414.046 695.944 419.695C695.789 427.092 697.435 434.415 700.738 441.035C703.511 446.701 707.684 451.566 712.861 455.169C717.054 458.228 722.074 459.945 727.261 460.095C730.38 460.124 733.483 459.64 736.445 458.662C738.899 457.909 741.191 456.706 743.205 455.114C744.667 454.044 745.754 452.539 746.309 450.813C746.534 449.663 746.645 448.493 746.639 447.321C746.639 445.703 746.235 441.807 745.446 435.851C745.132 434.888 744.48 434.071 743.609 433.554C742.193 432.904 740.678 432.5 739.127 432.359C737.051 432.065 733.947 431.844 729.796 431.697C729.221 431.628 728.695 431.338 728.329 430.889C727.962 430.44 727.784 429.867 727.831 429.289C727.813 428.954 727.862 428.619 727.976 428.303C728.089 427.988 728.265 427.698 728.492 427.451C730.457 427.598 733.396 427.672 737.327 427.672C742.614 427.706 747.9 427.454 753.16 426.918H753.583C753.865 426.878 754.152 426.905 754.422 426.995C754.692 427.085 754.937 427.237 755.138 427.438C755.34 427.64 755.491 427.885 755.582 428.155C755.672 428.426 755.698 428.713 755.658 428.995C755.589 429.619 755.46 430.234 755.273 430.833C754.99 432.083 754.83 433.357 754.795 434.638C754.575 440.152 754.464 444.95 754.464 448.957C754.479 449.438 754.405 449.918 754.244 450.372C754.025 450.849 753.734 451.289 753.381 451.677C745.593 460.635 735.184 465.113 722.155 465.113C715.908 465.072 709.778 463.42 704.356 460.316V460.316Z" fill="#311B88"/>
<path d="M800.109 414.933C801.114 415.573 801.945 416.452 802.528 417.491C803.112 418.53 803.429 419.697 803.452 420.889C803.47 421.509 803.396 422.129 803.231 422.727L799.558 435.391C799.46 435.481 799.348 435.556 799.227 435.612C799.017 435.697 798.792 435.734 798.566 435.722C797.947 435.735 797.346 435.519 796.876 435.115C796.617 434.854 796.426 434.533 796.32 434.18C796.215 433.828 796.197 433.455 796.27 433.094C796.564 430.643 796.711 429.044 796.711 428.296C796.711 424.804 795.976 422.341 794.525 420.944C793.7 420.202 792.736 419.632 791.69 419.266C790.643 418.9 789.534 418.745 788.427 418.812C784.569 418.812 781.839 420.889 780.235 425.043C778.554 429.622 777.702 434.465 777.718 439.343V453.312C777.556 455.266 777.978 457.224 778.93 458.937C779.366 459.5 779.922 459.957 780.558 460.275C781.194 460.593 781.893 460.764 782.604 460.775C783.159 460.806 783.683 461.041 784.073 461.437C784.368 461.724 784.545 462.111 784.569 462.521C784.575 462.795 784.498 463.064 784.349 463.293C784.202 463.514 784.055 463.624 783.908 463.624C780.859 463.404 777.479 463.293 773.769 463.293C769.544 463.293 765.467 463.404 761.536 463.624C761.389 463.624 761.242 463.514 761.113 463.293C760.964 463.064 760.887 462.795 760.893 462.521C760.893 462.304 760.941 462.089 761.033 461.892C761.125 461.695 761.259 461.521 761.426 461.382C761.893 461.012 762.465 460.8 763.06 460.775C763.773 460.777 764.477 460.611 765.115 460.292C765.753 459.973 766.307 459.509 766.734 458.937C767.653 457.173 768.054 455.185 767.891 453.202V426.091C767.984 424.767 767.656 423.448 766.954 422.323C766.556 421.868 766.06 421.509 765.503 421.274C764.946 421.038 764.344 420.932 763.74 420.962C762.803 420.815 762.326 420.154 762.326 418.996L762.436 418.113C767.356 417.511 772.083 415.836 776.285 413.206C776.49 413.103 776.72 413.065 776.947 413.095C777.361 413.09 777.77 413.185 778.141 413.371C778.508 413.555 778.655 413.794 778.581 414.088C778.067 419.259 777.773 423.039 777.7 425.429C780.553 416.851 785.451 412.562 792.394 412.562C795.153 412.504 797.858 413.335 800.109 414.933V414.933Z" fill="#311B88"/>
<path d="M856.039 454.38C856.238 454.391 856.433 454.444 856.61 454.536C856.788 454.628 856.944 454.757 857.068 454.913C857.462 455.44 857.639 456.097 857.564 456.751C857.54 457.788 857.31 458.809 856.887 459.756C856.464 460.702 855.858 461.556 855.102 462.265C854.218 463.124 853.166 463.79 852.012 464.223C850.859 464.657 849.628 464.847 848.398 464.783C847.225 464.825 846.059 464.596 844.989 464.115C843.919 463.633 842.974 462.913 842.226 462.008C840.48 459.577 839.582 456.637 839.673 453.645C838.247 457 835.92 459.895 832.95 462.008C830.201 463.971 826.905 465.02 823.527 465.004C817.711 465.004 813.29 463.386 810.266 460.151C807.282 457.022 805.652 452.841 805.729 448.516C805.681 446.251 806.176 444.008 807.173 441.974C808.17 439.94 809.64 438.175 811.46 436.826C815.776 433.691 821.028 432.116 826.356 432.36C828.626 432.379 830.89 432.612 833.116 433.058C835.368 433.492 837.567 434.17 839.673 435.08V431.477C839.673 426.312 838.259 422.526 835.467 420.118C832.599 417.668 828.932 416.36 825.162 416.442C822.318 416.393 819.502 417.02 816.948 418.273C814.393 419.526 812.172 421.368 810.468 423.647C810.468 423.647 810.137 423.647 809.696 423.28C809.501 423.155 809.338 422.984 809.223 422.782C809.108 422.581 809.043 422.354 809.035 422.122C809.089 421.502 809.363 420.922 809.806 420.486C811.607 417.861 814.126 415.813 817.062 414.586C820.63 413.064 824.481 412.318 828.358 412.398C833.82 412.198 839.188 413.857 843.585 417.104C847.602 420.228 849.58 425.363 849.518 432.507L849.408 450.74C849.295 452.603 849.519 454.472 850.069 456.255C850.256 456.732 850.59 457.138 851.023 457.412C851.456 457.687 851.965 457.816 852.476 457.78C853.853 457.78 854.808 456.714 855.304 454.619C855.393 454.515 855.508 454.437 855.638 454.395C855.768 454.353 855.906 454.348 856.039 454.38V454.38ZM835.834 454.913C838.145 452.158 839.442 448.694 839.508 445.098C839.597 444.372 839.634 443.641 839.618 442.91C838.398 440.516 836.475 438.554 834.108 437.286C831.93 436.103 829.495 435.472 827.017 435.448C823.773 435.28 820.571 436.248 817.962 438.187C816.849 439.088 815.962 440.237 815.372 441.542C814.782 442.848 814.506 444.273 814.564 445.704C814.509 449.115 815.788 452.413 818.127 454.895C819.366 456.188 820.868 457.199 822.532 457.859C824.196 458.518 825.983 458.811 827.771 458.718C829.325 458.733 830.863 458.399 832.271 457.74C833.679 457.082 834.922 456.116 835.908 454.913H835.834Z" fill="#311B88"/>
<path d="M919.647 454.379C919.842 454.387 920.033 454.439 920.204 454.531C920.376 454.623 920.525 454.754 920.639 454.912C920.978 455.462 921.126 456.108 921.061 456.75C921.062 457.8 920.85 458.839 920.44 459.806C920.03 460.772 919.429 461.646 918.674 462.375C917.793 463.225 916.746 463.883 915.598 464.307C914.45 464.731 913.227 464.911 912.006 464.838C910.778 464.868 909.561 464.607 908.453 464.077C907.346 463.547 906.379 462.762 905.632 461.786C903.814 459.13 902.947 455.937 903.171 452.725V434.491C903.171 429.099 902.136 425.092 900.067 422.47C899.035 421.175 897.711 420.144 896.204 419.46C894.697 418.777 893.05 418.46 891.397 418.537C888.787 418.56 886.262 419.467 884.233 421.11C881.859 423.056 880.035 425.591 878.943 428.462C877.576 431.975 876.908 435.721 876.978 439.491V453.35C876.816 455.303 877.238 457.261 878.19 458.974C878.626 459.537 879.182 459.994 879.818 460.312C880.454 460.63 881.153 460.801 881.864 460.812C883.168 461.033 883.829 461.621 883.829 462.558C883.835 462.832 883.758 463.101 883.609 463.33C883.462 463.551 883.315 463.661 883.168 463.661C880.119 463.441 876.721 463.33 873.029 463.33C868.804 463.33 864.726 463.441 860.796 463.661C860.649 463.661 860.502 463.551 860.355 463.33C860.211 463.1 860.14 462.83 860.153 462.558C860.153 462.341 860.201 462.126 860.293 461.93C860.385 461.733 860.519 461.558 860.685 461.419C861.153 461.049 861.725 460.837 862.32 460.812C863.033 460.814 863.737 460.648 864.375 460.329C865.013 460.01 865.567 459.546 865.994 458.974C866.879 457.18 867.26 455.179 867.096 453.184V426.091C867.185 424.775 866.878 423.463 866.214 422.323C865.829 421.867 865.343 421.507 864.794 421.271C864.246 421.035 863.651 420.929 863.055 420.963C862.805 420.953 862.562 420.876 862.352 420.74C862.142 420.604 861.973 420.415 861.861 420.191C861.651 419.807 861.538 419.378 861.53 418.941C861.511 418.661 861.549 418.379 861.641 418.114C866.56 417.512 871.288 415.836 875.49 413.206C875.694 413.104 875.925 413.065 876.151 413.096C876.566 413.091 876.975 413.185 877.345 413.372C877.713 413.555 877.86 413.794 877.786 414.088C877.262 418.358 876.967 422.653 876.904 426.955C877.994 422.94 880.258 419.342 883.407 416.625C886.454 413.953 890.376 412.495 894.428 412.526C896.944 412.383 899.461 412.789 901.804 413.716C904.148 414.643 906.263 416.068 908.002 417.893C911.247 421.459 912.869 426.808 912.869 433.94L912.979 450.868C912.881 452.726 913.079 454.587 913.567 456.382C913.738 456.859 914.061 457.266 914.486 457.542C914.91 457.817 915.414 457.946 915.918 457.908C916.268 457.926 916.617 457.861 916.937 457.717C917.256 457.573 917.537 457.355 917.755 457.081C918.238 456.37 918.592 455.58 918.802 454.747C918.874 454.593 919 454.471 919.155 454.403C919.311 454.336 919.486 454.327 919.647 454.379Z" fill="#311B88"/>
<path d="M932.03 461.421C929.973 458.977 928.926 455.282 928.926 450.393V420.8C928.992 419.785 928.861 418.768 928.54 417.804C928.283 417.252 927.658 416.976 926.703 416.976H923.434C923.302 416.995 923.167 416.982 923.041 416.94C922.914 416.897 922.799 416.826 922.705 416.732C922.611 416.637 922.54 416.522 922.497 416.396C922.455 416.269 922.442 416.135 922.46 416.002C922.466 415.553 922.636 415.122 922.938 414.789C923.336 414.396 923.867 414.167 924.426 414.146C927 413.912 929.448 412.921 931.461 411.297C933.601 409.205 935.191 406.616 936.089 403.761C936.276 403.275 936.607 402.859 937.037 402.566C937.467 402.274 937.976 402.12 938.496 402.125C939.083 402.125 939.359 402.272 939.359 402.566C939.359 406.499 939.359 409.624 939.047 411.959V412.289C939.011 412.572 939.035 412.858 939.117 413.131C939.199 413.403 939.338 413.655 939.524 413.87C940.033 414.173 940.624 414.308 941.214 414.256H956.386C956.533 414.256 956.68 414.385 956.827 414.624C956.973 414.875 957.049 415.161 957.047 415.451C957.063 415.849 956.925 416.237 956.662 416.535C956.516 416.688 956.339 416.807 956.142 416.883C955.945 416.96 955.733 416.991 955.523 416.976H941.986C941.103 416.889 940.221 417.145 939.524 417.693C938.998 418.352 938.748 419.189 938.826 420.028V449.86C938.638 452.276 939.359 454.675 940.847 456.587C941.512 457.322 942.331 457.903 943.245 458.287C944.159 458.671 945.146 458.85 946.137 458.811C948.018 458.784 949.867 458.318 951.537 457.451C953.459 456.494 955.179 455.177 956.607 453.573C956.827 453.352 957.121 453.352 957.488 453.573C957.665 453.707 957.806 453.883 957.899 454.085C957.991 454.287 958.033 454.509 958.021 454.731C957.878 455.83 957.335 456.838 956.496 457.561C954.281 459.985 951.585 461.919 948.58 463.241C946.026 464.398 943.264 465.023 940.461 465.079C938.87 465.155 937.282 464.865 935.821 464.231C934.359 463.597 933.062 462.636 932.03 461.421Z" fill="#311B88"/>
<path d="M928.538 244.544C929.955 245.324 931.557 245.707 933.173 245.652C934.79 245.597 936.362 245.106 937.722 244.231C939.951 242.674 941.762 240.591 942.994 238.166C944.153 236.07 944.977 233.807 945.437 231.457C945.703 230.22 945.795 228.951 945.713 227.689C945.534 225.703 945.051 223.756 944.28 221.917C942.884 218.395 940.34 215.448 937.061 213.554C935.383 212.607 933.524 212.026 931.606 211.848C929.687 211.671 927.753 211.901 925.93 212.525C922.77 213.715 919.964 215.688 917.775 218.259C916.619 219.561 915.626 221 914.817 222.542C914.048 223.959 913.514 225.493 913.238 227.082C912.858 229.035 912.946 231.051 913.495 232.964C914.116 234.876 915.101 236.648 916.397 238.184C917.472 239.475 918.707 240.623 920.071 241.603C921.108 242.413 922.229 243.109 923.414 243.68C924.3 244.111 925.207 244.498 926.132 244.838C927.322 245.159 928.591 244.993 929.659 244.378C930.715 243.741 931.484 242.72 931.808 241.529C931.964 240.942 932.003 240.329 931.921 239.726C931.839 239.123 931.638 238.543 931.33 238.019L930.614 237.063C930.029 236.48 929.3 236.061 928.502 235.85L928.024 235.666L929.181 236.144C927.585 235.462 926.08 234.586 924.699 233.534L925.636 234.269C924.605 233.464 923.674 232.538 922.863 231.512L923.579 232.449C923.041 231.74 922.591 230.969 922.238 230.152L922.697 231.255C922.424 230.613 922.233 229.94 922.128 229.251L922.293 230.446C922.211 229.787 922.211 229.12 922.293 228.461L922.128 229.692C922.26 228.77 922.507 227.869 922.863 227.009L922.385 228.148C922.923 226.897 923.614 225.718 924.442 224.637L923.708 225.593C924.66 224.368 925.758 223.263 926.977 222.303L926.04 223.02C926.974 222.289 927.991 221.672 929.071 221.182L927.987 221.66C928.696 221.346 929.443 221.129 930.21 221.016L929.016 221.182C929.784 221.081 930.562 221.081 931.33 221.182L930.1 221.035C930.944 221.132 931.772 221.342 932.561 221.66L931.404 221.2C932.223 221.54 932.995 221.985 933.7 222.524L932.745 221.77C933.569 222.424 934.309 223.177 934.949 224.013L934.214 223.057C934.922 223.99 935.508 225.009 935.959 226.09L935.5 224.987C935.965 226.105 936.286 227.279 936.455 228.479L936.29 227.284C936.391 228.102 936.391 228.929 936.29 229.747L936.437 228.497C936.227 229.989 935.826 231.447 935.243 232.835L935.72 231.677C935.115 233.167 934.326 234.575 933.369 235.868L934.104 234.912C933.573 235.601 932.956 236.219 932.267 236.75L933.222 236.034C932.816 236.331 932.378 236.583 931.918 236.787L933.02 236.328C932.685 236.47 932.333 236.569 931.973 236.622L933.167 236.456C932.814 236.502 932.455 236.502 932.102 236.456L933.332 236.622C932.987 236.567 932.648 236.474 932.322 236.346L933.461 236.824L933.002 236.603C931.887 235.968 930.568 235.796 929.328 236.125C928.162 236.459 927.169 237.229 926.555 238.276C925.938 239.342 925.768 240.609 926.082 241.8C926.395 242.992 927.166 244.011 928.226 244.636L928.538 244.544Z" fill="#3AB250"/>
<path d="M926.719 239.416C925.562 243.791 924.882 248.276 923.633 252.632C923.229 253.955 922.788 255.279 922.256 256.565L922.733 255.407C922.055 257.13 921.153 258.755 920.051 260.242L920.786 259.286C920.186 260.064 919.495 260.767 918.729 261.381L919.666 260.646C919.067 261.112 918.413 261.501 917.719 261.804L918.802 261.344C918.087 261.634 917.341 261.843 916.58 261.969L917.774 261.786C917.164 261.869 916.546 261.869 915.937 261.786L917.186 261.951C916.642 261.886 916.11 261.744 915.606 261.528L916.745 262.006C916.306 261.821 915.892 261.581 915.514 261.289L916.47 262.025C916.068 261.699 915.704 261.329 915.386 260.922L916.102 261.859C915.721 261.36 915.401 260.817 915.147 260.242L915.625 261.326C915.289 260.539 915.061 259.711 914.945 258.863L915.11 260.058C914.991 259.057 914.991 258.045 915.11 257.043L914.963 258.275C915.261 256.377 915.798 254.524 916.561 252.761L916.084 253.9C917.116 251.459 918.449 249.156 920.051 247.044L919.317 248C920.721 246.163 922.343 244.502 924.147 243.056L916.8 237.413C916.647 237.66 916.482 237.899 916.304 238.13L917.057 237.174C916.116 238.309 915.044 239.327 913.861 240.207L914.798 239.471C912.246 241.392 909.462 242.985 906.514 244.214L907.598 243.754C905.163 244.816 902.601 245.558 899.975 245.96L901.169 245.794C899.809 245.969 898.433 245.969 897.073 245.794L898.303 245.941C897.471 245.851 896.656 245.647 895.879 245.335L897.018 245.813C896.428 245.573 895.873 245.258 895.365 244.875L896.32 245.611C895.885 245.27 895.496 244.875 895.163 244.434L895.879 245.372C895.516 244.89 895.214 244.365 894.979 243.809L895.438 244.894C895.162 244.239 894.964 243.555 894.85 242.853L895.016 244.048C894.944 243.438 894.944 242.821 895.016 242.21L894.85 243.46C894.939 242.797 895.112 242.149 895.365 241.53L894.887 242.688C895.216 241.926 895.642 241.209 896.154 240.556L895.42 241.512C896.169 240.574 897.033 239.735 897.991 239.012L897.036 239.729C898.848 238.383 900.823 237.271 902.914 236.42L901.812 236.88C904.671 235.674 907.67 234.834 910.739 234.38L909.545 234.545C911.055 234.291 912.592 234.23 914.118 234.362C915.332 234.348 916.492 233.86 917.351 233.001C918.229 232.11 918.718 230.907 918.71 229.656C918.7 228.446 918.211 227.29 917.351 226.439L916.396 225.686C915.67 225.268 914.846 225.052 914.008 225.061C911.586 224.907 909.155 225.105 906.789 225.649C904.272 226.15 901.811 226.901 899.442 227.891C893.932 230.207 887.889 233.792 886.144 240.004C885.726 241.594 885.632 243.251 885.869 244.878C886.105 246.504 886.667 248.066 887.521 249.471C889.122 252.081 891.68 253.961 894.648 254.709C897.546 255.352 900.549 255.352 903.447 254.709C906.28 254.135 909.036 253.228 911.657 252.007C913.957 250.998 916.153 249.767 918.214 248.331C920.215 247.06 922.027 245.513 923.596 243.736C924.063 243.147 924.499 242.533 924.901 241.898C925.458 240.923 925.644 239.779 925.425 238.678C925.206 237.576 924.595 236.592 923.707 235.906C922.901 235.239 921.886 234.881 920.841 234.895L919.647 235.078C918.88 235.293 918.179 235.698 917.608 236.255C912.749 240.276 909.105 245.571 907.083 251.548C906.019 254.231 905.598 257.127 905.853 260.003C906.073 263.146 907.455 266.094 909.728 268.274C911.018 269.454 912.585 270.289 914.284 270.7C916.105 271.078 917.989 271.041 919.794 270.59C922.272 270.012 924.542 268.759 926.352 266.969C929.465 263.38 931.654 259.082 932.725 254.452C933.901 250.279 934.562 245.997 935.646 241.806C935.943 240.612 935.772 239.349 935.168 238.277C934.712 237.475 934.027 236.829 933.201 236.419C932.375 236.01 931.446 235.857 930.532 235.979C929.619 236.101 928.763 236.494 928.073 237.106C927.384 237.719 926.893 238.523 926.664 239.416H926.719Z" fill="#3AB250"/>
<path d="M924.517 215.358C922.62 210.172 919.193 205.685 914.69 202.492C912.625 200.906 910.292 199.704 907.802 198.944C904.947 197.963 901.84 198.002 899.01 199.054C896.181 200.106 893.803 202.107 892.281 204.716C891.381 206.128 890.676 207.655 890.187 209.256C889.751 210.654 889.54 212.112 889.562 213.575C889.581 214.903 889.836 216.216 890.315 217.454C890.917 219.022 891.78 220.476 892.868 221.755C893.773 222.786 894.796 223.705 895.918 224.494C896.784 225.172 897.698 225.787 898.654 226.332C903.051 228.571 907.701 230.274 912.504 231.405L913.937 231.791C915.131 232.079 916.389 231.908 917.463 231.313C918.254 230.846 918.89 230.156 919.29 229.329C919.691 228.502 919.839 227.575 919.715 226.664C919.592 225.753 919.202 224.899 918.596 224.209C917.989 223.519 917.193 223.023 916.306 222.784C912.632 221.902 909.023 220.765 905.506 219.384L906.663 219.862C904.51 218.99 902.484 217.834 900.638 216.424L901.593 217.16C900.713 216.493 899.922 215.714 899.242 214.844L899.977 215.8C899.542 215.23 899.173 214.613 898.875 213.961L899.334 215.064C899.089 214.473 898.911 213.857 898.801 213.226L898.985 214.421C898.885 213.726 898.885 213.02 898.985 212.326L898.82 213.557C898.964 212.56 899.229 211.585 899.61 210.653L899.132 211.811C899.602 210.686 900.22 209.629 900.969 208.668L900.216 209.624C900.72 208.981 901.3 208.401 901.942 207.896L901.006 208.613C901.518 208.242 902.066 207.922 902.64 207.657L901.557 208.116C902.18 207.856 902.834 207.676 903.504 207.583L902.31 207.749C903.115 207.648 903.929 207.648 904.734 207.749L903.504 207.602C904.634 207.749 905.739 208.045 906.791 208.484L905.634 208.006C907.259 208.695 908.785 209.597 910.171 210.69L909.216 209.954C910.961 211.296 912.523 212.859 913.863 214.605L913.147 213.667C914.169 214.982 915.02 216.421 915.682 217.95L915.222 216.866C915.376 217.213 915.511 217.569 915.626 217.932C915.972 219.093 916.738 220.083 917.776 220.707C918.325 221.028 918.933 221.235 919.564 221.317C920.195 221.399 920.836 221.354 921.449 221.185C922.636 220.851 923.642 220.06 924.248 218.985C924.854 217.911 925.01 216.64 924.682 215.45L924.517 215.358Z" fill="#3AB250"/>
<path d="M927.677 244.913C927.677 245.005 927.677 245.097 927.677 245.189L927.511 243.994C927.897 246.751 928.154 249.508 928.54 252.284C928.918 255.102 929.666 257.858 930.763 260.481C932.088 263.49 934.255 266.051 937.003 267.854C939.751 269.658 942.961 270.628 946.247 270.646C949.497 270.607 952.658 269.581 955.312 267.703C957.965 265.825 959.986 263.185 961.107 260.132C962.705 255.059 960.556 249.674 957.433 245.648C955.603 243.286 953.408 241.232 950.931 239.564C948.704 238.025 946.214 236.91 943.583 236.274C942.39 235.976 941.128 236.147 940.057 236.752C938.993 237.376 938.215 238.392 937.889 239.583C937.581 240.774 937.755 242.04 938.374 243.103C938.994 244.167 940.008 244.943 941.196 245.262C942.098 245.465 942.983 245.742 943.841 246.089L942.683 245.63C944.381 246.337 945.975 247.271 947.422 248.405L946.559 247.67C948.078 248.853 949.447 250.217 950.637 251.732L949.902 250.795C950.815 251.961 951.574 253.24 952.161 254.6L951.702 253.515C952.091 254.446 952.362 255.421 952.51 256.419L952.345 255.225C952.446 255.993 952.446 256.772 952.345 257.54L952.51 256.309C952.403 257.033 952.212 257.743 951.941 258.423L952.419 257.265C952.124 257.918 951.754 258.535 951.316 259.103L952.051 258.147C951.513 258.83 950.897 259.447 950.214 259.985L951.151 259.268C950.247 259.974 949.252 260.555 948.194 260.996L949.296 260.537C948.372 260.925 947.403 261.197 946.412 261.345L947.606 261.18C946.643 261.308 945.667 261.308 944.704 261.18L945.953 261.345C944.931 261.212 943.931 260.947 942.977 260.555L944.116 261.033C943.083 260.582 942.109 260.008 941.214 259.323L942.169 260.059C941.296 259.369 940.507 258.579 939.818 257.706L940.534 258.662C939.873 257.757 939.324 256.776 938.9 255.739L939.359 256.824C938.445 254.49 937.828 252.051 937.522 249.563L937.687 250.758C937.302 247.964 937.044 245.152 936.64 242.358C936.391 241.479 935.89 240.693 935.199 240.096C934.508 239.5 933.657 239.119 932.751 239.002C931.846 238.884 930.926 239.035 930.106 239.436C929.285 239.836 928.6 240.469 928.136 241.255L927.658 242.413C927.447 243.208 927.447 244.044 927.658 244.839L927.677 244.913Z" fill="#3AB250"/>
<path d="M939.21 241.07C941.806 242.589 944.559 243.822 947.421 244.746C950.334 245.7 953.375 246.202 956.44 246.235C959.395 246.172 962.307 245.51 964.999 244.287C967.487 243.251 969.709 241.668 971.502 239.655C973.756 237.209 974.991 233.993 974.955 230.666C974.787 227.525 973.564 224.533 971.483 222.175C969.732 220.279 967.496 218.9 965.018 218.186C962.777 217.527 960.445 217.23 958.111 217.304C953.019 217.462 948.016 218.677 943.417 220.87C942.352 221.491 941.578 222.51 941.265 223.703C940.951 224.896 941.124 226.164 941.745 227.229C942.078 227.755 942.512 228.208 943.024 228.562C943.535 228.915 944.112 229.162 944.721 229.288C945.916 229.546 947.164 229.377 948.247 228.81L949.147 228.406L948.045 228.865C950.682 227.77 953.447 227.016 956.274 226.623L955.08 226.788C957.147 226.47 959.247 226.427 961.326 226.659L960.095 226.512C961.318 226.66 962.516 226.969 963.658 227.431L962.501 226.954C963.286 227.282 964.027 227.708 964.705 228.222L963.75 227.487C964.327 227.935 964.845 228.454 965.293 229.031L964.577 228.093C965.01 228.664 965.38 229.28 965.679 229.931L965.201 228.847C965.498 229.549 965.714 230.283 965.844 231.034L965.679 229.839C965.761 230.492 965.761 231.153 965.679 231.806L965.826 230.575C965.746 231.251 965.573 231.913 965.312 232.541L965.789 231.383C965.474 232.155 965.054 232.878 964.54 233.534L965.275 232.578C964.636 233.403 963.903 234.15 963.089 234.802L964.026 234.067C962.893 234.926 961.66 235.642 960.352 236.199L961.436 235.721C960.138 236.279 958.773 236.668 957.376 236.879L958.57 236.714C956.961 236.934 955.33 236.934 953.721 236.714L954.97 236.879C952.255 236.499 949.601 235.77 947.072 234.71L948.211 235.17C946.726 234.556 945.284 233.843 943.894 233.038C943.345 232.717 942.736 232.51 942.106 232.428C941.475 232.346 940.834 232.39 940.221 232.56C939.059 232.903 938.07 233.671 937.447 234.71C936.847 235.782 936.688 237.046 937.003 238.233C937.319 239.42 938.084 240.438 939.137 241.07H939.21Z" fill="#3AB250"/>
<path d="M947.145 227.928C951.296 226.139 955.044 223.532 958.166 220.263C959.988 218.468 961.636 216.505 963.089 214.4C964.444 212.491 965.48 210.374 966.156 208.132C966.871 205.822 966.838 203.346 966.064 201.055C965.532 199.594 964.7 198.261 963.621 197.14C962.67 196.185 961.564 195.396 960.352 194.806C957.444 193.287 954.157 192.649 950.892 192.968C947.68 193.349 944.606 194.496 941.929 196.313C936.861 199.9 933.015 204.955 930.908 210.797C930.709 211.315 930.537 211.842 930.394 212.378L939.376 214.749C940.276 211.349 941.433 208.022 942.167 204.584C942.637 202.507 942.913 200.39 942.994 198.262C943.091 196.335 942.823 194.408 942.204 192.582C941.854 191.517 941.353 190.508 940.716 189.586C939.849 188.372 938.781 187.315 937.557 186.461C935.684 185.201 933.536 184.406 931.294 184.145C930.383 183.992 929.462 183.912 928.538 183.906C926.132 184 923.791 184.716 921.742 185.983C919.078 187.599 916.847 189.838 915.24 192.508C913.415 195.509 912.657 199.04 913.091 202.526C913.322 204.442 913.76 206.328 914.395 208.15C915.038 209.988 915.828 211.827 916.581 213.573L916.122 212.47C916.599 213.609 917.077 214.731 917.499 215.889C917.843 217.045 918.602 218.034 919.63 218.664C920.167 218.974 920.76 219.174 921.375 219.253C921.989 219.332 922.614 219.288 923.212 219.124C923.8 218.962 924.35 218.686 924.832 218.311C925.313 217.936 925.715 217.469 926.016 216.938C926.316 216.407 926.509 215.821 926.582 215.215C926.656 214.61 926.609 213.995 926.444 213.407C925.838 211.716 925.122 210.062 924.424 208.408L924.883 209.511C923.639 206.88 922.738 204.1 922.201 201.239L922.385 202.434C922.238 201.324 922.238 200.199 922.385 199.089L922.22 200.32C922.348 199.429 922.589 198.559 922.936 197.728L922.459 198.886C922.935 197.794 923.553 196.768 924.295 195.835L923.561 196.791C924.335 195.796 925.229 194.901 926.224 194.126L925.287 194.843C926.103 194.223 926.991 193.704 927.932 193.299L926.83 193.758C927.558 193.444 928.323 193.227 929.108 193.115L927.914 193.28C928.646 193.188 929.386 193.188 930.118 193.28L928.869 193.133C930.045 193.267 931.2 193.551 932.304 193.979L931.147 193.501C931.857 193.779 932.525 194.157 933.13 194.622L932.175 193.887C932.673 194.26 933.118 194.699 933.498 195.192L932.763 194.255C933.126 194.736 933.428 195.261 933.663 195.817L933.204 194.732C933.514 195.48 933.724 196.265 933.828 197.067L933.663 195.872C933.865 197.403 933.865 198.954 933.663 200.486L933.828 199.254C933.019 203.697 931.915 208.082 930.522 212.378C930.253 213.554 930.451 214.79 931.075 215.823C931.699 216.855 932.7 217.605 933.867 217.913C935.033 218.221 936.273 218.063 937.325 217.472C938.377 216.882 939.158 215.905 939.504 214.749C939.729 213.97 939.992 213.204 940.294 212.451L939.835 213.591C940.726 211.489 941.886 209.511 943.288 207.709L942.553 208.665C943.819 207.022 945.281 205.54 946.906 204.254L945.97 204.989C947.184 204.045 948.511 203.255 949.919 202.636L948.835 203.096C949.94 202.624 951.1 202.297 952.288 202.121L951.094 202.287C952.167 202.14 953.255 202.14 954.327 202.287L953.078 202.121C954.183 202.269 955.263 202.559 956.293 202.985L955.154 202.507C955.991 202.853 956.781 203.304 957.505 203.849L956.55 203.096C957.003 203.448 957.41 203.855 957.762 204.309L957.046 203.371C957.327 203.749 957.567 204.156 957.762 204.584L957.285 203.482C957.483 203.952 957.619 204.446 957.689 204.952L957.523 203.757C957.598 204.368 957.598 204.985 957.523 205.595L957.67 204.364C957.541 205.326 957.281 206.266 956.899 207.158L957.376 206.018C956.607 207.791 955.607 209.454 954.401 210.963L955.135 210.007C953.077 212.643 950.688 215.003 948.027 217.028L948.982 216.293C947.452 217.512 945.781 218.543 944.004 219.363L945.088 218.903L944.831 218.995C943.679 219.357 942.695 220.12 942.057 221.146C941.748 221.683 941.548 222.276 941.469 222.892C941.39 223.507 941.434 224.132 941.598 224.73C941.93 225.892 942.692 226.884 943.729 227.505C944.273 227.839 944.882 228.053 945.516 228.132C946.15 228.212 946.793 228.155 947.402 227.965L947.145 227.928Z" fill="#3AB250"/>
<path d="M915.333 259.967C915.959 260.139 916.573 260.354 917.17 260.61C920.002 261.869 922.401 263.936 924.067 266.551C925.733 269.166 926.592 272.214 926.538 275.315C926.979 294.412 931.056 301.893 936.218 311.341C936.861 312.517 937.522 313.73 938.183 315.017C939.794 317.797 940.965 320.811 941.655 323.95C942.481 328.95 939.818 331.063 938.569 331.725C933.058 334.868 924.462 328.049 922.221 324.281C921.797 323.558 921.446 322.795 921.174 322.002C920.054 322.719 918.492 323.84 916.325 325.365C914.892 326.395 910.576 329.519 906.406 327.516C902.237 325.512 901.943 320.384 901.759 315.899C901.759 315.568 901.759 315.182 901.759 314.778C898.196 317.94 894.008 320.972 889.93 319.318C885.852 317.664 885.54 313.216 885.301 310.128C878.744 312.48 868.256 313.62 865.096 308.29C863.627 305.735 863.406 301.654 870.754 296.838C882.344 289.266 901.429 264.157 901.612 263.9L901.851 263.606L902.127 263.349C903.848 261.69 905.969 260.507 908.284 259.914C910.599 259.321 913.028 259.339 915.333 259.967V259.967ZM926.354 312.297C921.633 303.419 917.831 294.412 917.39 275.535C917.466 274.201 917.148 272.875 916.475 271.721C915.802 270.567 914.804 269.637 913.607 269.047C912.772 268.685 911.852 268.565 910.952 268.702C910.052 268.838 909.209 269.225 908.519 269.819C906.186 272.87 890.353 293.346 878.285 302.647C880.16 302.334 881.983 301.765 883.703 300.956C884.71 300.342 885.858 299.999 887.036 299.96C888.214 299.922 889.382 300.189 890.426 300.735C893.604 302.573 893.953 306.157 894.1 309.135C894.485 308.823 894.945 308.437 895.459 307.977C897.296 306.341 901.631 302.463 906.039 304.301C910.447 306.139 910.521 311.028 910.704 315.329C910.704 316.028 910.704 316.947 910.833 317.793C918.584 312.186 921.854 310.44 925.307 311.709C925.678 311.863 926.029 312.06 926.354 312.297ZM930.744 320.494C930.542 320.108 930.34 319.667 930.083 319.226L929.477 318.087C929.58 318.612 929.76 319.12 930.009 319.594C930.235 319.925 930.5 320.227 930.799 320.494H930.744Z" fill="#3AB250"/>
<path d="M839.527 208.443C841.792 209.134 843.897 210.272 845.717 211.789C856.737 220.244 886.678 229.986 886.971 230.17L887.32 230.28L887.651 230.445C890.086 231.679 892.105 233.601 893.457 235.974C894.809 238.347 895.434 241.064 895.255 243.79C894.999 246.876 893.843 249.82 891.929 252.254C890.015 254.689 887.429 256.507 884.492 257.483C866.62 264.192 860.925 270.515 853.707 278.493L850.915 281.562C848.801 284 846.323 286.096 843.568 287.775C839.122 290.201 836.22 288.345 835.228 287.444C830.416 283.18 833.998 272.905 836.845 269.541C837.396 268.898 838.011 268.312 838.682 267.795C837.635 266.968 836.11 265.847 833.906 264.321C832.473 263.31 828.083 260.259 828.616 255.664C829.149 251.069 833.869 249.083 838.039 247.429L839.067 247.025C834.898 244.69 830.673 241.731 830.875 237.338C831.077 232.945 835.173 231.181 837.965 229.986C833.594 224.563 829.057 215.042 833.061 210.373C833.815 209.433 834.838 208.744 835.993 208.399C837.148 208.054 838.38 208.07 839.527 208.443V208.443ZM883.757 238.625C880.083 237.43 855.562 229.214 842.833 220.887C843.734 222.556 844.872 224.085 846.213 225.427C847.12 226.18 847.818 227.153 848.24 228.255C848.661 229.356 848.792 230.547 848.619 231.714C847.976 235.39 844.67 236.842 841.933 238.037C842.374 238.312 842.87 238.625 843.476 238.956C845.643 240.15 850.694 242.963 850.382 247.76C850.07 252.557 845.496 254.212 841.437 255.829C840.794 256.086 839.931 256.417 839.141 256.767C847.002 262.281 849.776 264.817 849.666 268.42C849.655 268.772 849.612 269.123 849.537 269.468C856.352 262.115 863.589 255.535 881.296 248.881C882.578 248.517 883.724 247.782 884.59 246.769C885.456 245.755 886.004 244.507 886.163 243.183C886.235 242.273 886.047 241.362 885.621 240.555C885.195 239.748 884.549 239.078 883.757 238.625V238.625ZM843.237 276.342L844.229 275.294L845.111 274.357C844.644 274.619 844.222 274.954 843.861 275.349C843.61 275.651 843.4 275.985 843.237 276.342V276.342Z" fill="#3AB250"/>
<path d="M920.016 301.196L919.005 299.137C918.797 298.75 918.499 298.419 918.137 298.172C917.774 297.924 917.357 297.768 916.921 297.716C916.485 297.663 916.043 297.717 915.632 297.871C915.221 298.026 914.854 298.277 914.56 298.604L909.693 303.971C909.334 304.374 908.865 304.663 908.343 304.8C907.822 304.937 907.272 304.917 906.761 304.742C906.251 304.567 905.804 304.246 905.476 303.817C905.148 303.389 904.953 302.874 904.917 302.335L904.531 296.821C904.497 296.322 904.327 295.841 904.039 295.432C903.752 295.022 903.357 294.699 902.899 294.499C902.441 294.298 901.936 294.226 901.44 294.292C900.944 294.358 900.476 294.559 900.086 294.873L896.413 297.869C895.953 298.237 895.388 298.447 894.8 298.469C894.211 298.49 893.632 298.321 893.147 297.987C892.663 297.652 892.299 297.171 892.109 296.613C891.92 296.055 891.915 295.451 892.096 294.891L894.851 286.307C894.929 286.081 895.034 285.865 895.164 285.664L908.021 265.776C908.321 265.318 908.75 264.96 909.254 264.748C909.758 264.535 910.313 264.477 910.85 264.581L919.097 266.235C919.657 266.35 920.166 266.636 920.555 267.055C920.944 267.473 921.192 268.003 921.265 268.57L925.195 299.615C925.293 300.265 925.155 300.928 924.804 301.484C924.454 302.04 923.916 302.452 923.288 302.643C922.659 302.835 921.983 302.794 921.383 302.528C920.782 302.263 920.297 301.79 920.016 301.196Z" fill="#3AB250"/>
<path d="M900.327 134.425C902.862 135.087 905.397 137.624 905.837 144.866C906.554 158.688 918.695 187.84 918.695 188.134L918.842 188.483L918.934 188.851C919.578 191.501 919.429 194.282 918.504 196.848C917.58 199.414 915.922 201.651 913.736 203.28C911.226 205.092 908.241 206.127 905.149 206.258C902.057 206.389 898.994 205.609 896.341 204.015C879.626 194.825 871.122 194.549 860.358 194.255L856.225 194.126C853.014 194.122 849.823 193.62 846.765 192.637C842.045 190.799 841.586 187.435 841.604 186.057C841.714 179.642 851.835 175.69 856.299 175.653C857.132 175.649 857.963 175.736 858.778 175.911C858.778 174.569 858.595 172.694 858.337 170.01C858.154 168.264 857.621 162.952 861.46 160.361C865.299 157.769 869.873 160.085 873.84 162.199L874.832 162.713C873.877 158.026 873.381 152.88 876.852 150.178C880.324 147.476 884.328 149.442 887.065 150.784C888.333 143.928 892.576 134.242 898.784 134.242C899.304 134.236 899.823 134.298 900.327 134.425V134.425ZM910.135 191.24C908.666 187.693 898.949 163.669 896.984 148.578C896.32 150.351 895.899 152.206 895.735 154.093C895.757 155.271 895.475 156.436 894.915 157.473C894.355 158.51 893.536 159.384 892.539 160.011C889.398 161.849 886.073 160.342 883.355 159.037C883.355 159.552 883.538 160.122 883.667 160.875C884.163 163.302 885.32 168.981 881.481 171.904C877.642 174.826 873.399 172.382 869.542 170.36C868.917 170.029 868.109 169.588 867.338 169.22C868.293 178.76 868.128 182.546 865.317 184.789C865.046 185.016 864.75 185.213 864.436 185.377C874.465 185.763 884.163 187.013 900.713 196.148C901.827 196.885 903.133 197.277 904.469 197.277C905.805 197.277 907.111 196.885 908.225 196.148C908.984 195.602 909.568 194.848 909.907 193.977C910.246 193.106 910.325 192.156 910.135 191.24V191.24ZM857.878 185.064C857.367 184.895 856.836 184.796 856.299 184.77C855.906 184.778 855.517 184.84 855.141 184.954H856.592L857.878 185.064Z" fill="#3AB250"/>
<path d="M877.237 185.339H879.588C880.025 185.35 880.458 185.257 880.851 185.067C881.244 184.877 881.587 184.597 881.851 184.248C882.114 183.9 882.292 183.494 882.368 183.064C882.444 182.634 882.417 182.191 882.289 181.774L880.084 174.844C879.92 174.332 879.911 173.782 880.057 173.265C880.203 172.747 880.498 172.283 880.905 171.932C881.313 171.582 881.815 171.358 882.348 171.291C882.882 171.224 883.423 171.315 883.905 171.554L888.919 174.017C889.368 174.237 889.868 174.331 890.366 174.287C890.864 174.243 891.34 174.064 891.743 173.768C892.146 173.473 892.46 173.072 892.652 172.611C892.844 172.149 892.906 171.644 892.832 171.15L892.115 166.426C892.035 165.844 892.143 165.252 892.423 164.735C892.703 164.219 893.14 163.806 893.671 163.555C894.202 163.305 894.799 163.231 895.375 163.344C895.951 163.457 896.475 163.751 896.873 164.183L902.879 170.892C903.041 171.075 903.177 171.279 903.283 171.499L913.937 192.692C914.18 193.182 914.273 193.733 914.205 194.276C914.136 194.819 913.909 195.329 913.551 195.743L908.041 202.029C907.659 202.459 907.152 202.757 906.592 202.883C906.032 203.008 905.446 202.954 904.918 202.728L876.08 190.688C875.397 190.51 874.809 190.075 874.439 189.473C874.069 188.871 873.946 188.149 874.095 187.459C874.245 186.768 874.655 186.162 875.24 185.767C875.826 185.372 876.542 185.219 877.237 185.339Z" fill="#3AB250"/>
<path d="M1022.09 184.494C1022.95 184.704 1023.75 185.114 1024.42 185.689C1029.38 189.769 1026.15 200.154 1023.41 203.628C1022.87 204.307 1022.25 204.924 1021.57 205.466C1022.66 206.257 1024.2 207.304 1026.46 208.775C1027.93 209.731 1032.41 212.635 1031.97 217.248C1031.53 221.862 1026.94 223.994 1022.79 225.795L1021.76 226.237C1026 228.424 1030.34 231.236 1030.28 235.629C1030.22 240.022 1026.18 241.934 1023.43 243.257C1028 248.514 1032.85 257.962 1028.94 262.686C1027.1 265.002 1023.43 266.693 1016.21 261.564C1004.97 253.495 974.661 244.783 974.367 244.691L974 244.599L973.669 244.433C971.192 243.289 969.108 241.438 967.677 239.114C966.246 236.789 965.532 234.094 965.624 231.365C965.772 228.272 966.823 225.291 968.648 222.792C970.474 220.292 972.992 218.384 975.892 217.303C993.525 209.951 999.017 203.481 1005.96 195.247C1006.82 194.217 1007.8 193.17 1008.64 192.085C1010.65 189.573 1013.03 187.391 1015.71 185.615C1016.63 184.973 1017.68 184.54 1018.78 184.346C1019.88 184.152 1021.01 184.203 1022.09 184.494V184.494ZM1015.05 199.015C1015.54 198.771 1015.98 198.441 1016.36 198.04C1016.59 197.727 1016.79 197.388 1016.94 197.029L1015.99 198.096L1015.05 199.015ZM1021.61 216.384C1013.56 211.201 1010.72 208.701 1010.7 205.099C1010.7 204.747 1010.73 204.397 1010.79 204.051C1004.23 211.642 997.217 218.461 979.749 225.722C978.481 226.13 977.361 226.905 976.531 227.948C975.701 228.991 975.197 230.257 975.084 231.585C975.044 232.495 975.262 233.398 975.714 234.188C976.166 234.979 976.833 235.625 977.637 236.052C981.311 237.118 1006.14 244.489 1019.17 252.374C1018.2 250.741 1017 249.25 1015.62 247.944C1014.69 247.227 1013.95 246.28 1013.49 245.194C1013.03 244.108 1012.86 242.922 1013 241.75C1013.51 238.074 1016.76 236.493 1019.46 235.206C1019.02 234.949 1018.51 234.655 1017.9 234.342C1015.7 233.221 1010.55 230.574 1010.7 225.777C1010.85 220.98 1015.37 219.16 1019.35 217.414C1020.03 217.138 1020.84 216.77 1021.61 216.421V216.384Z" fill="#3AB250"/>
<path d="M1002.76 214.013L1001.24 215.851C1000.96 216.187 1000.76 216.586 1000.67 217.013C1000.57 217.44 1000.58 217.884 1000.69 218.308C1000.8 218.732 1001.01 219.124 1001.3 219.451C1001.59 219.778 1001.95 220.031 1002.36 220.189L1009.14 222.781C1009.64 222.973 1010.07 223.309 1010.38 223.745C1010.7 224.182 1010.87 224.702 1010.89 225.238C1010.91 225.775 1010.77 226.306 1010.49 226.764C1010.22 227.223 1009.81 227.589 1009.32 227.817L1004.27 230.207C1003.82 230.42 1003.43 230.753 1003.15 231.169C1002.88 231.586 1002.72 232.071 1002.7 232.572C1002.68 233.072 1002.79 233.568 1003.04 234.007C1003.28 234.445 1003.63 234.809 1004.07 235.059L1008.2 237.449C1008.71 237.743 1009.12 238.194 1009.35 238.737C1009.58 239.279 1009.64 239.882 1009.5 240.457C1009.36 241.031 1009.05 241.546 1008.59 241.925C1008.14 242.304 1007.58 242.526 1006.99 242.559L998.007 243.092C997.768 243.11 997.529 243.11 997.29 243.092L974.11 238.092C973.576 237.971 973.089 237.696 972.71 237.3C972.332 236.905 972.077 236.407 971.979 235.868L970.528 227.597C970.429 227.032 970.511 226.452 970.762 225.937C971.013 225.422 971.419 224.999 971.924 224.729L999.476 209.822C1000.04 209.565 1000.66 209.503 1001.26 209.648C1001.86 209.792 1002.39 210.135 1002.77 210.619C1003.15 211.103 1003.36 211.702 1003.36 212.318C1003.36 212.934 1003.15 213.531 1002.76 214.013V214.013Z" fill="#3AB250"/>
<path d="M856.26 258.149L857.785 256.311C858.065 255.974 858.262 255.576 858.358 255.149C858.454 254.722 858.447 254.278 858.337 253.854C858.228 253.43 858.019 253.038 857.728 252.711C857.437 252.384 857.072 252.131 856.664 251.973L849.887 249.399C849.384 249.209 848.949 248.875 848.636 248.439C848.322 248.004 848.143 247.485 848.121 246.948C848.1 246.411 848.236 245.88 848.514 245.42C848.792 244.961 849.199 244.593 849.684 244.363L854.717 241.955C855.169 241.741 855.554 241.406 855.829 240.988C856.104 240.57 856.26 240.085 856.279 239.585C856.298 239.084 856.179 238.589 855.936 238.151C855.694 237.713 855.335 237.351 854.901 237.103L850.768 234.805C850.257 234.512 849.854 234.062 849.619 233.521C849.384 232.981 849.33 232.379 849.464 231.805C849.598 231.231 849.914 230.716 850.364 230.336C850.814 229.956 851.374 229.731 851.962 229.695L860.944 229.144C861.182 229.107 861.423 229.107 861.661 229.144L884.878 233.96C885.416 234.069 885.908 234.338 886.292 234.731C886.675 235.125 886.931 235.624 887.027 236.165L888.496 244.437C888.595 245.001 888.515 245.583 888.268 246.1C888.021 246.617 887.62 247.044 887.119 247.322L859.677 262.376C859.109 262.696 858.447 262.804 857.808 262.681C857.168 262.559 856.593 262.214 856.184 261.707C855.774 261.2 855.557 260.565 855.571 259.914C855.585 259.262 855.829 258.637 856.26 258.149V258.149Z" fill="#3AB250"/>
<path d="M963.254 258.441C964.965 258.887 966.599 259.588 968.103 260.518C984.396 270.48 992.882 271.087 1003.61 271.859L1007.74 272.171C1010.95 272.318 1014.12 272.969 1017.13 274.101C1021.77 276.105 1022.09 279.505 1022 280.884C1021.61 287.299 1011.32 290.791 1006.9 290.626C1006.06 290.592 1005.23 290.475 1004.42 290.277C1004.42 291.6 1004.42 293.493 1004.62 296.177C1004.62 298.015 1005 303.253 1001.06 305.68C997.106 308.106 992.643 305.569 988.767 303.309L987.812 302.757C988.565 307.481 988.822 312.646 985.241 315.182C981.659 317.719 977.747 315.587 975.065 314.135C973.485 320.936 968.783 330.365 962.63 330.089C959.672 329.942 956.127 327.939 956.072 319.061C955.962 305.202 945.18 275.554 945.051 275.259L944.923 274.91V274.543C944.398 271.864 944.67 269.09 945.705 266.565C946.74 264.039 948.492 261.873 950.745 260.334C952.569 259.13 954.631 258.337 956.791 258.01C958.951 257.683 961.157 257.83 963.254 258.441V258.441ZM985.975 278.55C977.975 276.263 970.356 272.807 963.364 268.293C962.286 267.506 961 267.054 959.667 266.996C958.334 266.937 957.013 267.273 955.87 267.962C955.11 268.467 954.508 269.177 954.134 270.009C953.76 270.842 953.63 271.764 953.758 272.668C955.062 276.344 963.713 300.698 964.999 315.863C965.762 314.106 966.269 312.249 966.505 310.348C966.535 309.17 966.868 308.02 967.474 307.008C968.079 305.997 968.935 305.159 969.958 304.577C973.191 302.867 976.424 304.577 979.142 305.955C979.142 305.441 979.014 304.853 978.904 304.117C978.518 301.673 977.618 295.956 981.585 293.254C985.553 290.552 989.667 293.144 993.433 295.331C994.039 295.699 994.847 296.158 995.6 296.563C995.068 287.005 995.398 283.218 998.3 281.086C998.584 280.882 998.885 280.703 999.2 280.553C994.74 280.289 990.314 279.618 985.975 278.55V278.55ZM1006.46 281.399C1006.71 281.467 1006.98 281.51 1007.25 281.527C1007.64 281.533 1008.04 281.49 1008.42 281.399L1006.99 281.252H1005.7L1006.46 281.399Z" fill="#3AB250"/>
<path d="M986.068 282.318L983.735 282.226C983.298 282.21 982.863 282.299 982.467 282.485C982.07 282.671 981.724 282.949 981.457 283.296C981.189 283.643 981.008 284.049 980.928 284.479C980.849 284.91 980.873 285.354 980.998 285.773L983.147 292.721C983.304 293.233 983.308 293.781 983.157 294.295C983.007 294.809 982.708 295.268 982.3 295.614C981.891 295.96 981.39 296.179 980.858 296.243C980.327 296.307 979.788 296.214 979.309 295.975L974.312 293.475C973.864 293.258 973.366 293.166 972.87 293.21C972.374 293.254 971.899 293.431 971.496 293.724C971.093 294.016 970.776 294.412 970.58 294.87C970.384 295.328 970.315 295.83 970.382 296.324L971.061 301.048C971.145 301.631 971.038 302.225 970.758 302.743C970.477 303.261 970.037 303.674 969.503 303.922C968.969 304.169 968.369 304.238 967.793 304.118C967.216 303.997 966.694 303.694 966.304 303.253L960.334 296.508C960.173 296.325 960.037 296.121 959.93 295.901L949.424 274.634C949.18 274.142 949.09 273.588 949.166 273.044C949.241 272.5 949.478 271.991 949.846 271.583L955.448 265.334C955.835 264.912 956.343 264.62 956.902 264.498C957.461 264.377 958.044 264.431 958.571 264.654L987.262 277.079C987.84 277.337 988.311 277.789 988.595 278.356C988.878 278.923 988.956 279.571 988.815 280.189C988.674 280.807 988.323 281.357 987.822 281.745C987.321 282.133 986.701 282.336 986.068 282.318V282.318Z" fill="#3AB250"/>
<path d="M940.606 129.389C945.309 130.621 949.68 136.264 950.727 139.407C950.966 140.148 951.126 140.912 951.205 141.686C952.454 141.282 954.235 140.62 956.807 139.609C958.368 138.984 963.162 137.072 966.542 139.903C969.922 142.734 968.967 147.476 968.195 151.281C968.195 151.556 968.085 151.869 968.03 152.181L968.342 152.016C972.42 149.921 977.049 148.101 980.428 150.564C983.808 153.027 983.073 156.813 982.633 159.552C985.628 159.22 988.654 159.282 991.633 159.736C997.143 160.6 1000.36 162.493 1001.24 165.544C1001.56 166.719 1001.5 167.964 1001.08 169.105C1000.65 170.246 999.879 171.224 998.87 171.904C997.191 173.11 995.331 174.041 993.359 174.661C980.704 179.017 957.082 197.49 956.862 197.674L956.587 197.894L956.274 198.06C953.931 199.356 951.263 199.948 948.592 199.765C945.92 199.583 943.358 198.633 941.212 197.031C938.986 195.332 937.312 193.011 936.404 190.361C935.495 187.711 935.391 184.851 936.106 182.142C939.89 165.103 937.704 157.641 934.949 148.193C934.6 147.016 934.251 145.803 933.902 144.517C932.983 141.282 930.228 131.448 937.006 129.371C938.184 129.041 939.431 129.047 940.606 129.389V129.389ZM942.7 144.241C942.7 144.149 942.7 144.076 942.7 144.002C942.744 143.385 942.694 142.766 942.553 142.164C942.344 141.647 942.059 141.164 941.708 140.73C941.819 141.208 941.947 141.723 942.112 142.311C942.278 142.899 942.517 143.579 942.7 144.241V144.241ZM963.64 161.574C962.89 161.363 962.186 161.014 961.564 160.545C958.111 157.935 959.048 153.321 959.727 149.516C959.838 148.928 960.003 148.156 960.113 147.421L959.893 147.513C951.186 150.987 947.807 151.795 944.996 149.847C944.64 149.604 944.313 149.321 944.023 149.002C946.539 157.953 948.192 166.813 944.372 183.925C944.032 185.021 944.025 186.193 944.352 187.292C944.679 188.392 945.325 189.369 946.209 190.101C946.99 190.688 947.92 191.046 948.893 191.134C949.867 191.222 950.845 191.036 951.719 190.597C954.511 188.447 973.522 173.816 986.931 167.86C985.217 167.784 983.502 167.926 981.824 168.283C980.75 168.627 979.604 168.686 978.5 168.454C977.395 168.222 976.37 167.707 975.524 166.96C973.081 164.662 973.522 161.298 973.926 158.725C973.43 158.946 972.824 159.221 972.089 159.589C969.646 161.004 966.45 162.309 963.64 161.574V161.574Z" fill="#3AB250"/>
<path d="M950.029 160.014L950.709 162.054C950.857 162.444 951.092 162.795 951.396 163.08C951.701 163.366 952.066 163.578 952.465 163.7C952.864 163.822 953.285 163.852 953.697 163.786C954.109 163.721 954.501 163.562 954.842 163.322L960.481 159.333C960.886 159.03 961.37 158.849 961.875 158.812C962.38 158.775 962.885 158.884 963.329 159.126C963.774 159.368 964.14 159.733 964.384 160.177C964.628 160.621 964.74 161.126 964.705 161.631L964.044 166.704C964.006 167.176 964.097 167.65 964.306 168.075C964.515 168.5 964.835 168.861 965.232 169.119C965.629 169.377 966.089 169.523 966.562 169.541C967.035 169.559 967.504 169.449 967.92 169.222L972.016 167.182C972.498 166.904 973.057 166.791 973.609 166.858C974.161 166.925 974.677 167.17 975.078 167.555C975.48 167.94 975.745 168.445 975.836 168.994C975.926 169.543 975.836 170.107 975.579 170.601L971.355 177.824C971.245 178.025 971.102 178.205 970.932 178.358L954.897 193.981C954.517 194.342 954.043 194.588 953.529 194.689C953.015 194.79 952.483 194.742 951.995 194.551L944.464 191.647C943.957 191.468 943.521 191.13 943.223 190.682C942.925 190.235 942.78 189.702 942.811 189.165L944.849 160.602C944.924 160.004 945.197 159.45 945.625 159.026C946.053 158.603 946.61 158.336 947.208 158.268C947.806 158.2 948.409 158.336 948.921 158.652C949.432 158.969 949.823 159.448 950.029 160.014V160.014Z" fill="#3AB250"/>
</svg>
